<svg width="425" height="430" viewBox="0 0 425 430" fill="none" xmlns="http://www.w3.org/2000/svg">
<g clip-path="url(#clip0_30_12)">
<path d="M193.062 414.191C194.775 420.53 201.563 429.923 218.544 429.953V429.959L218.582 429.956L218.62 429.959V429.953C236.144 429.92 242.794 419.943 244.117 414.06C223.249 406.994 201.226 411.87 193.062 414.191Z" fill="#D24848"/>
<path d="M64.4414 310.278C84.9388 331.915 112.587 349.145 144.669 359.813C117.185 336.157 82.829 318.703 64.4414 310.278Z" fill="#D24848"/>
<path d="M294.621 360.248C326.472 349.945 354.23 333.219 375.044 311.789C375.387 311.494 376.041 310.782 376.056 310.773C376.435 310.377 376.76 309.948 377.13 309.549C359.24 317.634 323.126 335.621 294.621 360.248Z" fill="#D24848"/>
<path d="M416.81 4.60058C416.81 4.60058 402.627 -7.71448 379.484 13.1264C379.484 13.1264 321.497 56.953 297.025 80.1502C272.844 72.0061 246.778 67.8147 220.436 67.8352C189.79 67.8147 159.581 73.5004 132.324 84.4191C111.333 62.8692 45.5149 13.1264 45.5149 13.1264C22.3727 -7.71448 8.18929 4.60058 8.18929 4.60058C-19.6272 70.9154 32.3405 182.21 32.3405 182.21L32.3481 182.201C28.3429 194.519 26.3208 207.177 26.3285 219.885C26.3285 249.216 36.946 276.586 55.3221 299.799C61.7813 302.408 120.464 326.788 158.864 364.025C158.99 364.058 159.108 364.103 159.234 364.135C172.359 376.751 183.867 391.61 191.125 408.683C200.546 406.026 223.532 401.173 246.185 408.558C252.896 393.308 264.156 378.643 279.826 364.904C280.048 364.707 280.273 364.529 280.499 364.335L280.636 364.296C321.104 324.998 384.323 299.953 384.961 299.706L385.256 300.168C404.446 276.066 414.59 248.256 414.54 219.891C414.556 200.481 409.809 181.248 400.555 163.228C413.909 128.573 437.563 54.0783 416.81 4.60058ZM294.587 126.28C295.338 128.302 296.862 130.097 298.955 131.427C301.948 133.408 289.121 137.612 285.842 135.44C283.352 133.807 281.521 131.648 280.571 129.223C279.36 126.193 293.325 123.119 294.587 126.28ZM278.301 101.057C279.509 97.5057 293.528 95.909 292.286 99.5761L291.001 103.35C289.794 106.901 275.775 108.498 277.021 104.831L278.301 101.057ZM256.37 100.961L261.236 105.68C265.195 109.517 251.738 113.547 248.298 110.214L243.433 105.495C239.477 101.658 252.931 97.6278 256.37 100.961ZM237.008 135.86C237.008 132.72 251.027 131.18 251.027 132.917V138.601C251.027 141.74 237.008 143.281 237.008 141.544V135.86ZM232.636 176.714L235.082 171.986C237.046 168.188 251.035 167.303 248.275 172.632L245.829 177.36C243.869 181.158 229.88 182.04 232.636 176.714ZM230.297 219.608C228.879 220.481 228.359 221.341 228.015 222.742C227.094 226.477 212.983 228.259 214.004 224.13C214.634 221.571 216.461 219.438 219.068 217.832C221.667 216.233 225.653 215.124 228.978 215.753C231.627 216.25 232.689 218.136 230.297 219.608ZM216.243 99.0071C217.248 95.0927 231.401 93.3709 230.285 97.7053L229.07 102.442C228.065 106.356 213.912 108.075 215.028 103.744L216.243 99.0071ZM211.022 158.75C212.616 158.601 218.219 158.789 217.096 161.163C216.018 163.436 215.59 165.548 216.003 167.964C216.71 172.141 202.618 174.64 201.987 170.908C201.498 168.024 201.773 165.25 203.073 162.516C204.2 160.124 208.057 159.027 211.022 158.75ZM193.392 198.406L189.535 190.899C188.301 188.498 202.064 185.058 203.55 187.956L207.411 195.463C208.645 197.867 194.882 201.308 193.392 198.406ZM199.021 240.913C200.405 245.245 186.367 248.119 185.006 243.857L183.795 240.067C182.411 235.736 196.453 232.861 197.814 237.124L199.021 240.913ZM201.166 124.462L202.377 127.304C203.344 129.565 189.436 132.771 188.362 130.248L187.146 127.406C186.179 125.145 200.088 121.936 201.166 124.462ZM175.47 94.4046C176.25 90.8507 190.326 88.9769 189.455 92.93L188.205 98.6079C187.425 102.162 173.353 104.036 174.22 100.083L175.47 94.4046ZM159.112 95.9686C158.788 98.845 159.2 101.743 160.324 104.494C161.161 106.577 147.218 109.711 146.305 107.438C145.183 104.686 144.773 101.788 145.097 98.9118C145.429 95.8077 159.238 94.7919 159.112 95.9686ZM135.278 129.285L138.882 121.701C140.052 119.24 143.637 118.055 146.786 117.787C148.51 117.641 154.109 118.025 152.951 120.465L149.343 128.049C148.174 130.51 144.589 131.695 141.439 131.963C139.716 132.112 134.116 131.728 135.278 129.285ZM135.741 175.075C137.124 171.834 150.925 170.467 149.664 173.422L148.449 176.264C147.065 179.505 133.264 180.872 134.525 177.917L135.741 175.075ZM128.379 116.333C130.776 117.617 125.375 119.771 124.412 120.068C121.821 120.867 117.77 121.683 115.262 120.34L106.678 115.737C104.282 114.453 109.682 112.299 110.645 112.001C113.237 111.203 117.288 110.387 119.795 111.73L128.379 116.333ZM122.547 150.153C119.784 151.461 115.721 152.209 112.633 151.22C110.371 150.525 108.394 149.363 106.915 147.859C103.636 144.49 117.162 140.757 119.956 143.62C121.064 144.755 122.131 145.473 123.831 146.018C126.958 147.019 124.267 149.34 122.547 150.153ZM13.0279 68.2254C12.2177 51.4836 14.2854 37.0743 19.1813 25.3878L19.9343 24.372C20.37 23.9937 24.0735 20.7079 31.534 20.7257C38.6544 20.7764 46.0079 24.1665 53.3844 30.8125C53.4035 30.8125 59.8359 35.6742 68.7182 42.5914C86.0509 56.0801 108.792 74.3025 118.714 84.4846L112.946 87.9373C103.277 78.0054 80.7766 59.9886 63.6044 46.6219L63.2184 46.324L26.3208 67.8382L20.584 72.1487C23.783 114.468 43.9555 158.205 44.1657 158.655L37.3473 160.609C37.1332 160.13 15.1874 112.666 13.0279 68.2254ZM84.0635 259.201C80.597 258.412 77.2642 257.33 74.0117 256.115L73.7938 256.029C71.6391 255.227 69.5404 254.337 67.5066 253.362C66.9371 253.085 66.4021 252.767 65.8441 252.478C64.2811 251.697 62.7624 250.864 61.2921 249.981C59.2115 248.704 57.2331 247.33 55.368 245.864C57.4098 244.267 59.5855 242.777 61.8806 241.405C63.3636 240.514 64.9383 239.731 66.5091 238.95C67.2429 238.581 67.95 238.182 68.7029 237.833C70.8254 236.868 73.0135 235.994 75.2576 235.215C75.4334 235.152 75.6054 235.083 75.7812 235.024C79.5918 233.71 83.4978 232.572 87.5644 231.833C81.8314 235.313 78.0783 240.699 78.0783 246.818C78.0744 251.572 80.3829 255.865 84.0635 259.201ZM143.385 250.008C141.86 250.943 140.251 251.781 138.634 252.603C138.118 252.868 137.625 253.166 137.101 253.419C134.999 254.423 132.828 255.337 130.604 256.154L130.493 256.195C127.306 257.372 124.045 258.424 120.659 259.195C124.083 256.094 126.127 252.213 126.488 248.131C126.53 247.687 126.644 247.264 126.644 246.815C126.644 246.457 126.511 246.129 126.488 245.775C126.305 243.065 125.378 240.418 123.768 238.012C122.159 235.606 119.904 233.498 117.158 231.83C121.148 232.554 124.986 233.665 128.731 234.943C128.857 234.988 128.983 235.039 129.109 235.08C131.441 235.879 133.715 236.775 135.916 237.776C136.612 238.098 137.269 238.471 137.95 238.81C139.601 239.623 141.244 240.443 142.8 241.372C145.097 242.745 147.291 244.232 149.351 245.858C147.467 247.354 145.46 248.721 143.385 250.008ZM157.083 230.1C95.9805 195.502 48.4693 229.522 47.9953 229.867L43.0268 225.727C43.5389 225.342 95.4148 188.165 161.333 225.494L157.083 230.1ZM152.145 206.015L150.967 203.164C149.741 200.2 163.687 197.081 164.987 200.221L166.164 203.071C167.391 206.036 153.444 209.154 152.145 206.015ZM162.988 151.991L161.803 145.357C161.333 142.729 175.478 140.501 175.822 142.414L177.007 149.048C177.477 151.678 163.328 153.904 162.988 151.991ZM190.238 263.229L198.7 267.971C204.655 271.308 191.92 276.074 187.689 273.703L179.227 268.96C173.269 265.624 186.008 260.857 190.238 263.229ZM191.614 317.672L187.987 313.883C183.913 309.629 197.347 305.521 200.875 309.203L204.502 312.992C208.576 317.246 195.142 321.354 191.614 317.672ZM198.207 287.308V282.571C198.207 277.522 212.425 275.955 212.425 281.779V286.515C212.425 291.565 198.207 293.132 198.207 287.308ZM220.876 349.002C220.876 353.858 206.684 355.544 206.684 349.872V346.083C206.684 341.227 220.876 339.541 220.876 345.213V349.002ZM211.611 259.961V257.119C211.611 253.455 225.63 251.676 225.63 254.176V257.018C225.63 260.685 211.611 262.46 211.611 259.961ZM237.723 311.965C237.723 315.057 223.704 316.576 223.704 314.908V311.119C223.704 308.026 237.723 306.507 237.723 308.175V311.965ZM248.287 282.768L245.868 287.504C243.593 291.958 229.532 292.107 232.487 286.319L234.906 281.582C237.184 277.129 251.245 276.977 248.287 282.768ZM255.675 245.82L250.764 252.418C248.994 254.795 245.011 255.987 241.61 255.704C238.976 255.483 235.69 253.72 237.432 251.375L242.344 244.777C244.113 242.4 248.096 241.208 251.497 241.491C254.138 241.712 257.421 243.478 255.675 245.82ZM257.926 210.337C254.945 211.433 250.924 211.615 248.463 209.688L244.836 206.846C242.351 204.901 246.254 202.225 248.253 201.49C251.23 200.393 255.254 200.212 257.716 202.139L261.343 204.981C263.827 206.926 259.925 209.601 257.926 210.337ZM269.698 169.01C268.547 165.834 282.559 162.87 283.717 166.067C284.328 167.753 285.249 169.04 286.836 170.276C289.882 172.653 276.749 176.669 273.73 174.315C271.815 172.852 270.425 171.022 269.698 169.01ZM311.086 242.111C310.994 242.388 310.945 242.674 310.868 242.957C310.495 244.224 310.297 245.518 310.28 246.818C310.28 247.738 310.417 248.626 310.601 249.502C310.715 250.032 310.826 250.559 310.987 251.075C311.887 254.073 313.698 256.859 316.269 259.198C315.462 259.016 314.709 258.728 313.914 258.519L313.926 258.537C313.662 258.468 313.414 258.367 313.15 258.296C311.013 257.73 308.913 257.08 306.859 256.35C304.495 255.499 302.194 254.544 299.968 253.49C299.502 253.267 299.07 252.999 298.607 252.767C296.883 251.918 295.21 251.009 293.593 250.041C291.481 248.744 289.472 247.348 287.577 245.861C289.648 244.223 291.873 242.733 294.178 241.342C295.819 240.388 297.518 239.496 299.268 238.667C299.899 238.354 300.507 238.006 301.149 237.711C303.442 236.674 305.812 235.748 308.239 234.932C308.311 234.908 308.384 234.875 308.46 234.851C312.126 233.615 315.875 232.542 319.773 231.833C315.502 234.418 312.447 238.032 311.086 242.111ZM375.674 249.948C374.29 250.8 372.83 251.563 371.367 252.32C370.755 252.641 370.163 252.99 369.536 253.297C367.587 254.235 365.576 255.093 363.516 255.871L363.153 256.017C359.82 257.271 356.411 258.391 352.857 259.198C356.537 255.865 358.846 251.569 358.846 246.815C358.846 240.696 355.093 235.31 349.36 231.83C353.51 232.584 357.493 233.752 361.372 235.104L362.075 235.36C364.216 236.117 366.302 236.957 368.336 237.887C369.146 238.262 369.914 238.691 370.705 239.093C372.188 239.841 373.679 240.586 375.085 241.432C377.344 242.802 379.526 244.259 381.556 245.864C379.701 247.316 377.737 248.679 375.674 249.948ZM389.276 230.1C328.17 195.502 280.663 229.522 280.189 229.867L275.22 225.727C275.733 225.342 327.612 188.165 393.526 225.494L389.276 230.1ZM411.968 68.2254C409.808 112.666 387.858 160.133 387.641 160.609L380.822 158.655C381.036 158.202 401.205 114.468 404.408 72.1487L398.671 67.8382L361.773 46.324L361.387 46.6219C344.215 59.9886 321.715 78.0054 312.045 87.9373L306.278 84.4846C316.2 74.3055 338.937 56.0801 356.273 42.5914C361.343 38.632 366.454 34.7056 371.607 30.8125C378.984 24.1694 386.337 20.7764 393.458 20.7257C400.918 20.7079 404.622 23.9966 405.057 24.372L405.81 25.3878C410.71 37.0743 412.778 51.4836 411.968 68.2254Z" fill="#D24848"/>
</g>
<defs>
<clipPath id="clip0_30_12">
<rect width="425" height="428.971" fill="white" transform="translate(0 0.987305)"/>
</clipPath>
</defs>
</svg>
