<svg width="124" height="119" viewBox="0 0 124 119" fill="none" xmlns="http://www.w3.org/2000/svg">
<path d="M62 111.562C91.9614 111.562 116.25 88.2533 116.25 59.5C116.25 30.7467 91.9614 7.4375 62 7.4375C32.0386 7.4375 7.75 30.7467 7.75 59.5C7.75 88.2533 32.0386 111.562 62 111.562Z" fill="url(#paint0_linear_4_360)"/>
<path d="M82.2031 75.4222L84.6129 60.7276H69.5376V51.196C69.5376 47.1749 71.6398 43.2532 78.392 43.2532H85.25V30.7429C85.25 30.7429 79.0287 29.75 73.0837 29.75C60.6624 29.75 52.5516 36.7894 52.5516 49.5278V60.7276H38.75V75.4222H52.5516V110.947C55.3222 111.354 58.1568 111.562 61.0444 111.562C63.9321 111.562 66.767 111.354 69.5376 110.947V75.4222H82.2031Z" fill="white"/>
<defs>
<linearGradient id="paint0_linear_4_360" x1="62" y1="7.4375" x2="62" y2="111.254" gradientUnits="userSpaceOnUse">
<stop stop-color="#18ACFE"/>
<stop offset="1" stop-color="#0163E0"/>
</linearGradient>
</defs>
</svg>
