<svg width="1430" height="1303" viewBox="0 0 1430 1303" fill="none" xmlns="http://www.w3.org/2000/svg">
<g clip-path="url(#clip0_53_4)">
<g clip-path="url(#clip1_53_4)">
<path d="M673.258 561.812C674.777 567.516 680.798 575.968 695.861 575.995V576L695.895 575.997L695.929 576V575.995C711.474 575.965 717.373 566.988 718.546 561.694C700.035 555.336 680.5 559.724 673.258 561.812Z" fill="#D24848"/>
<path d="M559.163 468.309C577.345 487.777 601.871 503.282 630.33 512.881C605.95 491.595 575.474 475.889 559.163 468.309Z" fill="#D24848"/>
<path d="M763.346 513.272C791.599 504.001 816.222 488.951 834.685 469.668C834.99 469.402 835.57 468.762 835.584 468.754C835.919 468.397 836.207 468.011 836.536 467.652C820.666 474.927 788.631 491.112 763.346 513.272Z" fill="#D24848"/>
<path d="M871.735 193.251C871.735 193.251 859.153 182.17 838.625 200.923C838.625 200.923 787.187 240.359 765.479 261.233C744.029 253.905 720.906 250.133 697.54 250.152C670.355 250.133 643.558 255.249 619.379 265.074C600.759 245.683 542.374 200.923 542.374 200.923C521.846 182.17 509.264 193.251 509.264 193.251C484.59 252.923 530.688 353.069 530.688 353.069L530.695 353.061C527.142 364.145 525.348 375.535 525.355 386.97C525.355 413.363 534.773 437.992 551.074 458.878C556.804 461.227 608.859 483.164 642.921 516.671C643.033 516.701 643.138 516.741 643.25 516.77C654.893 528.123 665.101 541.493 671.539 556.856C679.896 554.464 700.286 550.098 720.38 556.743C726.334 543.021 736.322 529.825 750.222 517.462C750.419 517.285 750.619 517.124 750.819 516.95L750.941 516.915C786.838 481.553 842.917 459.018 843.483 458.795L843.744 459.211C860.767 437.523 869.766 412.499 869.721 386.975C869.736 369.51 865.525 352.203 857.316 335.988C869.162 304.805 890.145 237.773 871.735 193.251ZM763.316 302.741C763.982 304.561 765.334 306.177 767.191 307.373C769.845 309.156 758.467 312.938 755.558 310.984C753.35 309.515 751.726 307.572 750.883 305.39C749.808 302.664 762.197 299.897 763.316 302.741ZM748.869 280.045C749.941 276.85 762.376 275.413 761.275 278.713L760.135 282.109C759.064 285.304 746.628 286.741 747.734 283.441L748.869 280.045ZM729.416 279.959L733.732 284.205C737.244 287.658 725.307 291.285 722.255 288.285L717.939 284.039C714.43 280.587 726.364 276.96 729.416 279.959ZM712.24 311.362C712.24 308.537 724.676 307.151 724.676 308.714V313.828C724.676 316.653 712.24 318.039 712.24 316.477V311.362ZM708.362 348.123L710.531 343.869C712.274 340.451 724.683 339.655 722.235 344.451L720.065 348.705C718.326 352.123 705.917 352.916 708.362 348.123ZM706.287 386.721C705.029 387.506 704.568 388.281 704.263 389.54C703.446 392.902 690.929 394.505 691.834 390.79C692.393 388.487 694.014 386.568 696.326 385.123C698.631 383.683 702.168 382.686 705.117 383.252C707.467 383.7 708.409 385.396 706.287 386.721ZM693.821 278.201C694.712 274.679 707.267 273.129 706.277 277.029L705.198 281.292C704.307 284.814 691.752 286.36 692.742 282.463L693.821 278.201ZM689.189 331.959C690.603 331.825 695.573 331.994 694.577 334.131C693.62 336.176 693.241 338.076 693.607 340.25C694.234 344.009 681.734 346.258 681.175 342.899C680.741 340.304 680.985 337.808 682.137 335.348C683.138 333.195 686.558 332.209 689.189 331.959ZM673.55 367.643L670.129 360.888C669.034 358.727 681.242 355.631 682.561 358.24L685.985 364.995C687.081 367.158 674.872 370.254 673.55 367.643ZM678.544 405.892C679.771 409.789 667.318 412.376 666.111 408.54L665.037 405.131C663.809 401.233 676.265 398.646 677.472 402.482L678.544 405.892ZM680.446 301.106L681.52 303.663C682.378 305.698 670.041 308.582 669.088 306.312L668.01 303.755C667.152 301.72 679.49 298.833 680.446 301.106ZM657.652 274.059C658.344 270.861 670.831 269.175 670.058 272.733L668.949 277.842C668.257 281.04 655.774 282.726 656.544 279.169L657.652 274.059ZM643.142 275.467C642.854 278.055 643.219 280.663 644.217 283.138C644.959 285.012 632.591 287.832 631.781 285.787C630.786 283.311 630.422 280.703 630.709 278.115C631.004 275.322 643.254 274.408 643.142 275.467ZM622 305.446L625.197 298.621C626.234 296.407 629.414 295.34 632.208 295.099C633.737 294.968 638.704 295.314 637.677 297.509L634.476 304.334C633.439 306.548 630.259 307.615 627.465 307.856C625.936 307.99 620.969 307.644 622 305.446ZM622.41 346.649C623.637 343.732 635.88 342.502 634.761 345.161L633.683 347.718C632.455 350.635 620.213 351.865 621.332 349.206L622.41 346.649ZM615.88 293.791C618.006 294.946 613.215 296.884 612.361 297.152C610.062 297.871 606.469 298.605 604.245 297.396L596.63 293.255C594.504 292.1 599.295 290.162 600.149 289.893C602.448 289.175 606.041 288.441 608.265 289.65L615.88 293.791ZM610.707 324.223C608.255 325.4 604.651 326.073 601.912 325.183C599.905 324.558 598.152 323.513 596.84 322.159C593.931 319.128 605.93 315.769 608.408 318.345C609.391 319.366 610.337 320.012 611.846 320.503C614.619 321.403 612.232 323.492 610.707 324.223ZM513.557 250.503C512.838 235.438 514.672 222.472 519.015 211.956L519.683 211.042C520.069 210.702 523.355 207.745 529.973 207.761C536.289 207.807 542.812 210.857 549.355 216.838C549.372 216.838 555.078 221.212 562.957 227.436C578.332 239.574 598.505 255.971 607.306 265.133L602.19 268.24C593.612 259.303 573.654 243.091 558.421 231.063L558.078 230.795L525.348 250.154L520.259 254.033C523.097 292.113 540.991 331.469 541.178 331.874L535.129 333.632C534.939 333.201 515.472 290.491 513.557 250.503ZM576.569 422.348C573.494 421.637 570.538 420.664 567.653 419.571L567.459 419.493C565.548 418.772 563.686 417.971 561.882 417.094C561.377 416.845 560.903 416.558 560.408 416.298C559.021 415.596 557.674 414.846 556.37 414.051C554.524 412.903 552.769 411.665 551.115 410.347C552.926 408.91 554.856 407.569 556.892 406.334C558.207 405.533 559.604 404.828 560.997 404.125C561.648 403.793 562.276 403.434 562.944 403.12C564.826 402.252 566.767 401.466 568.758 400.764C568.914 400.708 569.066 400.646 569.222 400.592C572.603 399.41 576.067 398.386 579.675 397.722C574.589 400.852 571.26 405.699 571.26 411.205C571.257 415.483 573.304 419.346 576.569 422.348ZM629.191 414.076C627.838 414.917 626.411 415.671 624.976 416.41C624.519 416.649 624.081 416.917 623.617 417.145C621.752 418.048 619.827 418.871 617.853 419.606L617.755 419.643C614.927 420.702 612.036 421.648 609.032 422.342C612.069 419.552 613.882 416.06 614.202 412.387C614.239 411.987 614.341 411.607 614.341 411.202C614.341 410.88 614.222 410.586 614.202 410.267C614.04 407.828 613.218 405.446 611.79 403.281C610.362 401.116 608.362 399.219 605.926 397.719C609.466 398.37 612.87 399.37 616.192 400.52C616.304 400.56 616.416 400.606 616.528 400.643C618.596 401.362 620.613 402.169 622.566 403.069C623.183 403.359 623.766 403.694 624.37 403.999C625.834 404.731 627.292 405.468 628.672 406.305C630.709 407.54 632.656 408.878 634.483 410.342C632.811 411.687 631.032 412.918 629.191 414.076ZM641.342 396.161C587.14 365.029 544.995 395.641 544.575 395.952L540.167 392.226C540.622 391.881 586.639 358.427 645.112 392.017L641.342 396.161ZM636.961 374.489L635.917 371.924C634.829 369.257 647.2 366.45 648.353 369.275L649.397 371.841C650.485 374.508 638.114 377.314 636.961 374.489ZM646.58 325.877L645.529 319.908C645.112 317.543 657.659 315.538 657.964 317.259L659.015 323.229C659.432 325.596 646.881 327.598 646.58 325.877ZM670.753 425.972L678.259 430.239C683.541 433.242 672.244 437.53 668.491 435.397L660.985 431.129C655.7 428.127 667 423.838 670.753 425.972ZM671.973 474.962L668.756 471.552C665.142 467.724 677.059 464.028 680.188 467.341L683.405 470.751C687.02 474.578 675.103 478.275 671.973 474.962ZM677.822 447.639V443.377C677.822 438.833 690.434 437.423 690.434 442.664V446.926C690.434 451.469 677.822 452.879 677.822 447.639ZM697.93 503.153C697.93 507.523 685.341 509.04 685.341 503.936V500.526C685.341 496.157 697.93 494.64 697.93 499.744V503.153ZM689.711 423.031V420.474C689.711 417.177 702.147 415.577 702.147 417.826V420.383C702.147 423.683 689.711 425.28 689.711 423.031ZM712.874 469.826C712.874 472.608 700.438 473.975 700.438 472.474V469.065C700.438 466.282 712.874 464.915 712.874 466.416V469.826ZM722.245 443.554L720.099 447.816C718.082 451.823 705.609 451.957 708.229 446.749L710.376 442.487C712.396 438.479 724.869 438.343 722.245 443.554ZM728.799 410.307L724.442 416.244C722.872 418.383 719.34 419.455 716.322 419.201C713.986 419.002 711.071 417.416 712.617 415.306L716.973 409.369C718.543 407.229 722.076 406.157 725.093 406.412C727.436 406.61 730.348 408.2 728.799 410.307ZM730.796 378.379C728.151 379.365 724.584 379.529 722.401 377.794L719.184 375.237C716.98 373.487 720.441 371.079 722.215 370.417C724.856 369.431 728.426 369.267 730.609 371.002L733.826 373.559C736.03 375.309 732.569 377.717 730.796 378.379ZM741.238 341.191C740.217 338.334 752.646 335.667 753.673 338.543C754.216 340.06 755.033 341.218 756.44 342.331C759.142 344.47 747.493 348.083 744.815 345.965C743.116 344.648 741.882 343.002 741.238 341.191ZM777.952 406.969C777.87 407.219 777.826 407.476 777.758 407.731C777.427 408.871 777.252 410.035 777.236 411.205C777.236 412.033 777.358 412.832 777.521 413.62C777.623 414.097 777.721 414.572 777.863 415.035C778.662 417.734 780.269 420.241 782.549 422.345C781.834 422.182 781.166 421.922 780.46 421.734L780.471 421.75C780.237 421.688 780.016 421.597 779.782 421.533C777.886 421.024 776.024 420.439 774.202 419.783C772.105 419.016 770.064 418.157 768.089 417.209C767.676 417.008 767.292 416.767 766.882 416.558C765.353 415.795 763.868 414.976 762.434 414.105C760.561 412.938 758.778 411.682 757.098 410.344C758.935 408.87 760.908 407.53 762.953 406.278C764.409 405.42 765.916 404.616 767.469 403.871C768.028 403.589 768.567 403.276 769.137 403.01C771.171 402.077 773.273 401.244 775.426 400.509C775.49 400.488 775.555 400.458 775.622 400.437C778.874 399.325 782.2 398.36 785.658 397.722C781.869 400.047 779.159 403.299 777.952 406.969ZM835.245 414.022C834.018 414.789 832.722 415.475 831.424 416.156C830.882 416.445 830.356 416.759 829.8 417.035C828.071 417.879 826.288 418.651 824.46 419.351L824.138 419.482C821.182 420.611 818.158 421.619 815.005 422.345C818.269 419.346 820.317 415.48 820.317 411.202C820.317 405.696 816.988 400.85 811.902 397.719C815.584 398.397 819.117 399.448 822.558 400.665L823.182 400.895C825.081 401.576 826.932 402.332 828.735 403.168C829.454 403.506 830.136 403.892 830.837 404.254C832.153 404.927 833.475 405.597 834.723 406.358C836.726 407.591 838.662 408.902 840.463 410.347C838.817 411.653 837.075 412.88 835.245 414.022ZM847.311 396.161C793.106 365.029 750.965 395.641 750.544 395.952L746.137 392.226C746.591 391.881 792.611 358.427 851.081 392.017L847.311 396.161ZM867.439 250.503C865.524 290.491 846.053 333.203 845.86 333.632L839.812 331.874C840.001 331.466 857.892 292.113 860.733 254.033L855.644 250.154L822.914 230.795L822.572 231.063C807.339 243.091 787.38 259.303 778.803 268.24L773.687 265.133C782.488 255.974 802.657 239.574 818.036 227.436C822.532 223.874 827.066 220.341 831.638 216.838C838.181 210.86 844.704 207.807 851.02 207.761C857.638 207.745 860.923 210.704 861.31 211.042L861.978 211.956C866.324 222.472 868.158 235.438 867.439 250.503Z" fill="#D24848"/>
</g>
<path d="M325.08 692.958V689.738L331.52 688.198V648.718L325.08 647.178V643.958H346.57V647.178L340.13 648.718V688.268H356.58L360.36 677.838H363.58L362.88 692.958H325.08ZM368.211 675.038C368.211 669.905 369.681 665.611 372.621 662.158C375.561 658.658 379.621 656.908 384.801 656.908C387.508 656.908 389.865 657.421 391.871 658.448C393.925 659.428 395.535 660.805 396.701 662.578C397.915 664.351 398.801 666.335 399.361 668.528C399.921 670.721 400.201 673.101 400.201 675.668H376.541C376.868 679.495 378.151 682.761 380.391 685.468C382.631 688.128 385.688 689.458 389.561 689.458C392.035 689.458 394.718 688.921 397.611 687.848L398.801 691.138C394.461 693.051 390.331 694.008 386.411 694.008C380.765 694.008 376.308 692.165 373.041 688.478C369.821 684.791 368.211 680.311 368.211 675.038ZM376.541 672.238L391.521 671.118C391.381 668.318 390.728 665.891 389.561 663.838C388.395 661.785 386.738 660.758 384.591 660.758C382.258 660.758 380.345 661.855 378.851 664.048C377.405 666.241 376.635 668.971 376.541 672.238ZM405.251 684.278C405.251 676.205 412.414 672.168 426.741 672.168V669.718C426.741 665.658 426.157 663.091 424.991 662.018C423.871 660.898 422.097 660.338 419.671 660.338L411.481 667.338C410.361 666.638 409.404 665.658 408.611 664.398C407.864 663.091 407.467 661.715 407.421 660.268C409.381 659.195 411.527 658.378 413.861 657.818C416.194 657.211 418.504 656.908 420.791 656.908C430.357 656.908 435.141 660.921 435.141 668.948V688.408H440.601V690.718C439.527 691.745 438.337 692.538 437.031 693.098C435.724 693.705 434.441 694.008 433.181 694.008C430.427 694.008 428.397 692.818 427.091 690.438C423.964 692.818 420.441 694.008 416.521 694.008C413.441 694.008 410.781 693.191 408.541 691.558C406.347 689.925 405.251 687.498 405.251 684.278ZM414.071 683.998C414.071 685.725 414.631 687.008 415.751 687.848C416.917 688.688 418.387 689.108 420.161 689.108C422.727 689.108 424.921 688.315 426.741 686.728V675.738C422.541 675.738 419.367 676.508 417.221 678.048C415.121 679.541 414.071 681.525 414.071 683.998ZM443.944 692.958V689.948L449.894 688.548V663.628H443.944V660.618L455.144 657.958H458.224V662.298C462.004 658.705 466.39 656.908 471.384 656.908C471.664 657.795 471.804 658.775 471.804 659.848C471.804 661.575 471.594 663.115 471.174 664.468L462.284 663.698C460.884 664.351 459.53 665.145 458.224 666.078V688.548L465.574 689.948V692.958H443.944ZM475.594 692.958V689.948L481.544 688.548V663.628H475.594V660.618L486.794 657.958H489.944V661.318C493.491 658.378 497.248 656.908 501.214 656.908C504.854 656.908 507.724 657.935 509.824 659.988C511.924 662.041 512.974 664.678 512.974 667.898V688.548L518.924 689.948V692.958H500.094V689.948L504.644 688.548V669.158C504.644 664.398 502.614 662.018 498.554 662.018C495.801 662.018 492.931 663.091 489.944 665.238V688.548L494.494 689.948V692.958H475.594ZM540.235 655.158C540.235 651.285 541.775 648.275 544.855 646.128C547.935 643.981 551.925 642.908 556.825 642.908C562.052 642.908 566.835 643.445 571.175 644.518L570.825 657.958H567.675L564.175 647.878C562.215 647.505 560.232 647.318 558.225 647.318C555.005 647.318 552.462 647.948 550.595 649.208C548.775 650.468 547.865 652.218 547.865 654.458C547.865 656.371 548.682 657.981 550.315 659.288C551.995 660.548 554.888 662.041 558.995 663.768C561.188 664.655 562.985 665.495 564.385 666.288C565.832 667.035 567.372 668.038 569.005 669.298C570.638 670.558 571.852 672.075 572.645 673.848C573.485 675.621 573.905 677.605 573.905 679.798C573.905 684.465 572.178 688.058 568.725 690.578C565.505 692.911 561.468 694.055 556.615 694.008C555.308 694.008 553.138 693.891 550.105 693.658C547.118 693.425 543.875 692.795 540.375 691.768V677.978H543.595L547.165 688.478C549.125 689.085 551.412 689.388 554.025 689.388C557.665 689.388 560.605 688.758 562.845 687.498C565.085 686.191 566.205 684.161 566.205 681.408C566.205 679.308 565.202 677.488 563.195 675.948C561.188 674.408 558.248 672.798 554.375 671.118C549.055 668.831 545.368 666.615 543.315 664.468C541.262 662.321 540.235 659.218 540.235 655.158ZM578.177 710.948L584.127 709.548V663.628H578.177V660.618L589.377 657.958H592.527V661.178C595.374 658.331 598.874 656.908 603.027 656.908C606.994 656.908 610.377 658.378 613.177 661.318C616.024 664.258 617.447 668.528 617.447 674.128C617.447 680.428 615.51 685.328 611.637 688.828C607.764 692.281 603.074 694.008 597.567 694.008C595.654 694.008 593.974 693.821 592.527 693.448V709.548L599.877 710.948V713.958H578.177V710.948ZM592.527 689.458C593.927 689.925 595.397 690.158 596.937 690.158C600.437 690.158 603.284 688.805 605.477 686.098C607.67 683.391 608.767 679.495 608.767 674.408C608.767 670.488 607.904 667.548 606.177 665.588C604.497 663.581 602.327 662.578 599.667 662.578C597.054 662.578 594.674 663.395 592.527 665.028V689.458ZM622.907 684.278C622.907 676.205 630.07 672.168 644.397 672.168V669.718C644.397 665.658 643.814 663.091 642.647 662.018C641.527 660.898 639.754 660.338 637.327 660.338L629.137 667.338C628.017 666.638 627.06 665.658 626.267 664.398C625.52 663.091 625.124 661.715 625.077 660.268C627.037 659.195 629.184 658.378 631.517 657.818C633.85 657.211 636.16 656.908 638.447 656.908C648.014 656.908 652.797 660.921 652.797 668.948V688.408H658.257V690.718C657.184 691.745 655.994 692.538 654.687 693.098C653.38 693.705 652.097 694.008 650.837 694.008C648.084 694.008 646.054 692.818 644.747 690.438C641.62 692.818 638.097 694.008 634.177 694.008C631.097 694.008 628.437 693.191 626.197 691.558C624.004 689.925 622.907 687.498 622.907 684.278ZM631.727 683.998C631.727 685.725 632.287 687.008 633.407 687.848C634.574 688.688 636.044 689.108 637.817 689.108C640.384 689.108 642.577 688.315 644.397 686.728V675.738C640.197 675.738 637.024 676.508 634.877 678.048C632.777 679.541 631.727 681.525 631.727 683.998ZM661.6 692.958V689.948L667.55 688.548V663.628H661.6V660.618L672.8 657.958H675.95V661.318C679.497 658.378 683.253 656.908 687.22 656.908C690.86 656.908 693.73 657.935 695.83 659.988C697.93 662.041 698.98 664.678 698.98 667.898V688.548L704.93 689.948V692.958H686.1V689.948L690.65 688.548V669.158C690.65 664.398 688.62 662.018 684.56 662.018C681.807 662.018 678.937 663.091 675.95 665.238V688.548L680.5 689.948V692.958H661.6ZM723.76 647.318C723.76 648.765 723.246 650.001 722.22 651.028C721.24 652.008 720.026 652.498 718.58 652.498C717.133 652.498 715.896 652.008 714.87 651.028C713.89 650.001 713.4 648.765 713.4 647.318C713.4 645.871 713.89 644.658 714.87 643.678C715.896 642.651 717.133 642.138 718.58 642.138C720.026 642.138 721.24 642.628 722.22 643.608C723.246 644.588 723.76 645.825 723.76 647.318ZM708.29 692.958V689.948L714.24 688.548V663.628H708.29V660.618L719.49 657.958H722.57V688.548L728.52 689.948V692.958H708.29ZM733.399 692.398V682.388H736.619L739.279 689.738C740.912 690.018 742.732 690.158 744.739 690.158C747.725 690.158 749.825 689.785 751.039 689.038C752.299 688.245 752.929 686.915 752.929 685.048C752.929 683.601 752.252 682.411 750.899 681.478C749.545 680.498 747.212 679.355 743.899 678.048C740.772 676.741 738.345 675.201 736.619 673.428C734.892 671.608 734.029 669.321 734.029 666.568C734.029 663.441 735.335 661.061 737.949 659.428C740.609 657.748 744.062 656.908 748.309 656.908C751.995 656.908 755.332 657.351 758.319 658.238V667.758H755.379L753.069 661.178C751.715 660.805 750.129 660.618 748.309 660.618C745.789 660.618 744.015 661.015 742.989 661.808C742.009 662.555 741.519 663.698 741.519 665.238C741.519 666.125 741.845 666.918 742.499 667.618C743.152 668.318 743.875 668.901 744.669 669.368C745.509 669.788 746.839 670.395 748.659 671.188C752.905 672.961 755.939 674.758 757.759 676.578C759.625 678.351 760.559 680.661 760.559 683.508C760.559 686.915 759.182 689.528 756.429 691.348C753.675 693.121 750.082 694.008 745.649 694.008C741.262 694.008 737.179 693.471 733.399 692.398ZM764.935 692.958V689.948L770.885 688.548V642.628H764.935V639.618L776.135 636.958H779.285V661.318C782.832 658.378 786.588 656.908 790.555 656.908C794.195 656.908 797.065 657.935 799.165 659.988C801.265 662.041 802.315 664.678 802.315 667.898V688.548L808.265 689.948V692.958H789.435V689.948L793.985 688.548V669.158C793.985 664.398 791.955 662.018 787.895 662.018C785.142 662.018 782.272 663.091 779.285 665.238V688.548L783.835 689.948V692.958H764.935ZM824.56 647.178V643.958H845.56V647.178L839.68 648.438L849.69 680.218L859.77 643.958H865.72L877.41 680.078L885.67 648.718L880 647.178V643.958H896.94V647.178L890.5 648.718L878.6 693.448H873.07L860.89 656.908L850.6 693.448H845.21L830.65 648.648L824.56 647.178ZM914.072 647.318C914.072 648.765 913.559 650.001 912.532 651.028C911.552 652.008 910.339 652.498 908.892 652.498C907.445 652.498 906.209 652.008 905.182 651.028C904.202 650.001 903.712 648.765 903.712 647.318C903.712 645.871 904.202 644.658 905.182 643.678C906.209 642.651 907.445 642.138 908.892 642.138C910.339 642.138 911.552 642.628 912.532 643.608C913.559 644.588 914.072 645.825 914.072 647.318ZM898.602 692.958V689.948L904.552 688.548V663.628H898.602V660.618L909.802 657.958H912.882V688.548L918.832 689.948V692.958H898.602ZM922.731 662.158V660.058L932.671 651.588H934.771V658.378L944.851 657.958V662.158H934.771V683.578C934.771 687.731 936.428 689.808 939.741 689.808C941.141 689.808 942.821 689.388 944.781 688.548L945.971 691.768C943.078 693.261 940.091 694.008 937.011 694.008C933.651 694.008 931.038 693.215 929.171 691.628C927.351 689.995 926.441 687.195 926.441 683.228V662.158H922.731ZM948.001 692.958V689.948L953.951 688.548V642.628H948.001V639.618L959.201 636.958H962.351V661.318C965.898 658.378 969.655 656.908 973.621 656.908C977.261 656.908 980.131 657.935 982.231 659.988C984.331 662.041 985.381 664.678 985.381 667.898V688.548L991.331 689.948V692.958H972.501V689.948L977.051 688.548V669.158C977.051 664.398 975.021 662.018 970.961 662.018C968.208 662.018 965.338 663.091 962.351 665.238V688.548L966.901 689.948V692.958H948.001ZM1008.96 700.798C1014.56 696.738 1017.36 690.625 1017.36 682.458V648.718L1010.92 647.178V643.958H1032.41V647.178L1025.97 648.718V682.458C1025.97 687.265 1024.45 691.605 1021.42 695.478C1018.43 699.398 1015.09 702.151 1011.41 703.738L1008.96 700.798ZM1034.19 660.968V657.958H1048.47V682.108C1048.47 686.775 1050.48 689.108 1054.49 689.108C1057.66 689.108 1060.65 687.918 1063.45 685.538V662.368L1058.9 660.968V657.958H1071.78V688.408H1077.24V690.718C1076.12 691.698 1074.86 692.491 1073.46 693.098C1072.11 693.705 1070.75 694.008 1069.4 694.008C1068.33 694.008 1067.37 693.798 1066.53 693.378C1065.74 693.005 1065.13 692.515 1064.71 691.908C1064.29 691.301 1063.99 690.811 1063.8 690.438C1063.61 690.018 1063.5 689.668 1063.45 689.388C1059.76 692.468 1055.8 694.008 1051.55 694.008C1047.82 694.008 1044.97 693.005 1043.01 690.998C1041.1 688.991 1040.14 686.331 1040.14 683.018V662.368L1034.19 660.968ZM1080.07 692.958V689.948L1086.02 688.548V642.628H1080.07V639.618L1091.27 636.958H1094.42V688.548L1100.37 689.948V692.958H1080.07ZM1119.83 647.318C1119.83 648.765 1119.32 650.001 1118.29 651.028C1117.31 652.008 1116.1 652.498 1114.65 652.498C1113.21 652.498 1111.97 652.008 1110.94 651.028C1109.96 650.001 1109.47 648.765 1109.47 647.318C1109.47 645.871 1109.96 644.658 1110.94 643.678C1111.97 642.651 1113.21 642.138 1114.65 642.138C1116.1 642.138 1117.31 642.628 1118.29 643.608C1119.32 644.588 1119.83 645.825 1119.83 647.318ZM1104.36 692.958V689.948L1110.31 688.548V663.628H1104.36V660.618L1115.56 657.958H1118.64V688.548L1124.59 689.948V692.958H1104.36Z" fill="black"/>
<path d="M53.7962 1221.72C77.2709 1253.61 0 1303 0 1303H1430V-10C1430 -10 1400.45 -2.22163 1381.58 3.13C1354 10.9541 1364.47 20.0114 1311.16 24.3881C1257.85 28.7648 1300.89 84.4109 1300.89 84.4109C1300.89 84.4109 1229 135.68 1229 188.826C1229 241.971 1341.48 150.686 1311.16 227.59C1280.84 304.495 1229 306.37 1280.84 426.416C1332.68 546.462 1247.41 415.66 1229 426.416C1188.7 449.957 1200.14 577.724 1229 571.471C1257.85 565.219 1300.65 665.361 1280.84 725.905C1267.62 766.29 1238.18 767.166 1212.37 795.932C1190.06 820.79 1165.63 825.979 1157.11 862.207C1143.5 920.057 1214.02 916.314 1199.47 973.786C1186.97 1023.14 1164.09 1009.84 1137.06 1048.53C1100.77 1100.47 1145.86 1221.72 1103.8 1221.72C1061.74 1221.72 1083.75 1129.81 1051.96 1116.68C1020.17 1103.55 971.475 1192.49 911.601 1196.08C877.79 1198.11 859.27 1170.51 826.016 1178.58C797.901 1185.4 760.971 1221.72 760.971 1221.72C760.971 1221.72 723.642 1236.37 702.285 1221.72C671.406 1200.54 666.094 1135.44 627.459 1148.57C588.823 1161.7 624.158 1211.08 603.984 1236.72C565.447 1285.71 504.037 1143.51 468.516 1196.08C459.358 1209.64 460.999 1223.12 451.888 1236.72C424.48 1277.65 382.039 1278.79 344.785 1253.61C323.522 1239.23 321.37 1215.51 302.726 1196.08C280.048 1172.45 259.035 1123 237.681 1148.57C221.371 1168.09 249.506 1197.48 237.681 1221.72C225.519 1246.65 184.374 1345.52 184.374 1253.61C184.374 1161.7 131.424 1250.77 111.994 1221.72C99.2236 1202.63 112.43 1170.05 93.8988 1161.7C71.1584 1151.44 30.3215 1189.83 53.7962 1221.72Z" fill="#D0FD50" fill-opacity="0.79" stroke="#FFD348" stroke-width="5"/>
</g>
<rect x="0.5" y="0.5" width="4999" height="4017" stroke="#FFD348"/>
<defs>
<clipPath id="clip0_53_4">
<rect width="5000" height="4018" fill="white"/>
</clipPath>
<clipPath id="clip1_53_4">
<rect width="377" height="386" fill="white" transform="translate(502 190)"/>
</clipPath>
</defs>
</svg>
