<svg width="118" height="106" viewBox="0 0 118 106" fill="none" xmlns="http://www.w3.org/2000/svg">
<path d="M15.648 7.56055H102.312C106.31 7.56055 109.531 10.4692 109.531 14.0456V91.8963C109.531 95.4876 106.293 98.3814 102.312 98.3814H15.648C11.6666 98.3814 8.42871 95.4727 8.42871 91.8963V14.0456C8.42871 10.4692 11.6666 7.56055 15.648 7.56055Z" fill="url(#paint0_radial_4_363)"/>
<path d="M76.8049 87.9193H41.1547C29.5412 87.9193 20.0752 79.4309 20.0752 68.9835V36.9588C20.0752 26.5263 29.5246 18.0229 41.1547 18.0229H76.8214C88.435 18.0229 97.9009 26.5114 97.9009 36.9588V68.9983C97.8844 79.4309 88.435 87.9193 76.8049 87.9193ZM41.1547 23.8551C33.1095 23.8551 26.5676 29.7317 26.5676 36.9588V68.9983C26.5676 76.2254 33.1095 82.1021 41.1547 82.1021H76.8214C84.8666 82.1021 91.4086 76.2254 91.4086 68.9983V36.9588C91.4086 29.7317 84.8666 23.8551 76.8214 23.8551H41.1547ZM58.9798 70.4527C48.2583 70.4527 39.5192 62.6171 39.5192 52.9711C39.5192 43.34 48.2418 35.4896 58.9798 35.4896C69.7013 35.4896 78.4404 43.3251 78.4404 52.9711C78.4404 62.6023 69.7013 70.4527 58.9798 70.4527ZM58.9798 41.3217C51.8266 41.3217 46.0116 46.5454 46.0116 52.9711C46.0116 59.3969 51.8266 64.6205 58.9798 64.6205C66.133 64.6205 71.948 59.3969 71.948 52.9711C71.948 46.5454 66.133 41.3217 58.9798 41.3217Z" fill="white" stroke="white" stroke-width="8.96" stroke-miterlimit="10"/>
<path d="M79.0851 38.6207C81.366 38.6207 83.2151 36.9597 83.2151 34.9107C83.2151 32.8617 81.366 31.2007 79.0851 31.2007C76.8041 31.2007 74.9551 32.8617 74.9551 34.9107C74.9551 36.9597 76.8041 38.6207 79.0851 38.6207Z" fill="white" stroke="white" stroke-width="10.08" stroke-miterlimit="10"/>
<defs>
<radialGradient id="paint0_radial_4_363" cx="0" cy="0" r="1" gradientUnits="userSpaceOnUse" gradientTransform="translate(30.1073 113.797) rotate(-54.5259) scale(148.643 113.503)">
<stop stop-color="#F9ED32"/>
<stop offset="0.53" stop-color="#FF4700"/>
<stop offset="0.72" stop-color="#EE2A7B"/>
<stop offset="1" stop-color="#002AFF"/>
</radialGradient>
</defs>
</svg>
