<svg width="377" height="386" viewBox="0 0 377 386" fill="none" xmlns="http://www.w3.org/2000/svg">
<g clip-path="url(#clip0_30_12)">
<path d="M171.258 371.812C172.777 377.516 178.798 385.968 193.861 385.995V386L193.895 385.997L193.929 386V385.995C209.474 385.965 215.373 376.988 216.546 371.694C198.035 365.336 178.5 369.724 171.258 371.812Z" fill="#D24848"/>
<path d="M57.1631 278.309C75.3454 297.777 99.8711 313.282 128.33 322.881C103.95 301.595 73.474 285.889 57.1631 278.309Z" fill="#D24848"/>
<path d="M261.346 323.272C289.599 314.001 314.222 298.951 332.685 279.668C332.99 279.402 333.57 278.762 333.584 278.754C333.919 278.397 334.207 278.011 334.536 277.652C318.666 284.927 286.631 301.112 261.346 323.272Z" fill="#D24848"/>
<path d="M369.735 3.25132C369.735 3.25132 357.153 -7.8301 336.625 10.9231C336.625 10.9231 285.187 50.3594 263.479 71.2329C242.029 63.9047 218.906 60.1331 195.54 60.1515C168.355 60.1331 141.558 65.2493 117.379 75.0742C98.7593 55.683 40.3744 10.9231 40.3744 10.9231C19.8459 -7.8301 7.26438 3.25132 7.26438 3.25132C-17.4105 62.9232 28.6879 163.069 28.6879 163.069L28.6947 163.061C25.1418 174.145 23.3481 185.535 23.3549 196.97C23.3549 223.363 32.7732 247.992 49.074 268.878C54.8036 271.227 106.859 293.164 140.921 326.671C141.033 326.701 141.138 326.741 141.25 326.77C152.893 338.123 163.101 351.493 169.539 366.856C177.896 364.464 198.286 360.098 218.38 366.743C224.334 353.021 234.322 339.825 248.222 327.462C248.419 327.285 248.619 327.124 248.819 326.95L248.941 326.915C284.838 291.553 340.917 269.018 341.483 268.795L341.744 269.211C358.767 247.523 367.766 222.499 367.721 196.975C367.736 179.51 363.525 162.203 355.316 145.988C367.162 114.805 388.145 47.7727 369.735 3.25132ZM261.316 112.741C261.982 114.561 263.334 116.177 265.191 117.373C267.845 119.156 256.467 122.938 253.558 120.984C251.35 119.515 249.726 117.572 248.883 115.39C247.808 112.664 260.197 109.897 261.316 112.741ZM246.869 90.0451C247.941 86.8499 260.376 85.4131 259.275 88.7129L258.135 92.1091C257.064 95.3043 244.628 96.7411 245.734 93.4414L246.869 90.0451ZM227.416 89.9593L231.732 94.2053C235.244 97.6579 223.307 101.285 220.255 98.2851L215.939 94.0391C212.43 90.5866 224.364 86.9598 227.416 89.9593ZM210.24 121.362C210.24 118.537 222.676 117.151 222.676 118.714V123.828C222.676 126.653 210.24 128.039 210.24 126.477V121.362ZM206.362 158.123L208.531 153.869C210.274 150.451 222.683 149.655 220.235 154.451L218.065 158.705C216.326 162.123 203.917 162.916 206.362 158.123ZM204.287 196.721C203.029 197.506 202.568 198.281 202.263 199.54C201.446 202.902 188.929 204.505 189.834 200.79C190.393 198.487 192.014 196.568 194.326 195.123C196.631 193.683 200.168 192.686 203.117 193.252C205.467 193.7 206.409 195.396 204.287 196.721ZM191.821 88.2009C192.712 84.6786 205.267 83.1292 204.277 87.0295L203.198 91.2915C202.307 94.8138 189.752 96.3605 190.742 92.4629L191.821 88.2009ZM187.189 141.959C188.603 141.825 193.573 141.994 192.577 144.131C191.62 146.176 191.241 148.076 191.607 150.25C192.234 154.009 179.734 156.258 179.175 152.899C178.741 150.304 178.985 147.808 180.137 145.348C181.138 143.195 184.558 142.209 187.189 141.959ZM171.55 177.643L168.129 170.888C167.034 168.727 179.242 165.631 180.561 168.24L183.985 174.995C185.081 177.158 172.872 180.254 171.55 177.643ZM176.544 215.892C177.771 219.789 165.318 222.376 164.111 218.54L163.037 215.131C161.809 211.233 174.265 208.646 175.472 212.482L176.544 215.892ZM178.446 111.106L179.52 113.663C180.378 115.698 168.041 118.582 167.088 116.312L166.01 113.755C165.152 111.72 177.49 108.833 178.446 111.106ZM155.652 84.0594C156.344 80.8615 168.831 79.1754 168.058 82.7325L166.949 87.8417C166.257 91.0396 153.774 92.7256 154.544 89.1685L155.652 84.0594ZM141.142 85.4667C140.854 88.055 141.219 90.6627 142.217 93.1384C142.959 95.0122 130.591 97.8321 129.781 95.7868C128.786 93.3107 128.422 90.7032 128.709 88.1151C129.004 85.3219 141.254 84.4079 141.142 85.4667ZM120 115.446L123.197 108.621C124.234 106.407 127.414 105.34 130.208 105.099C131.737 104.968 136.704 105.314 135.677 107.509L132.476 114.334C131.439 116.548 128.259 117.615 125.465 117.856C123.936 117.99 118.969 117.644 120 115.446ZM120.41 156.649C121.637 153.732 133.88 152.502 132.761 155.161L131.683 157.718C130.455 160.635 118.213 161.865 119.332 159.206L120.41 156.649ZM113.88 103.791C116.006 104.946 111.215 106.884 110.361 107.152C108.062 107.871 104.469 108.605 102.245 107.396L94.6299 103.255C92.5041 102.1 97.2947 100.162 98.149 99.8934C100.448 99.1751 104.041 98.4406 106.265 99.6495L113.88 103.791ZM108.707 134.223C106.255 135.4 102.651 136.073 99.912 135.183C97.9053 134.558 96.1519 133.513 94.8401 132.159C91.9312 129.128 103.93 125.769 106.408 128.345C107.391 129.366 108.337 130.012 109.846 130.503C112.619 131.403 110.232 133.492 108.707 134.223ZM11.5565 60.5027C10.8378 45.4379 12.672 32.4721 17.015 21.9563L17.6829 21.0422C18.0694 20.7017 21.3546 17.7451 27.9725 17.7612C34.2887 17.8067 40.8117 20.8572 47.3551 26.8375C47.372 26.8375 53.078 31.2122 60.9571 37.4365C76.3322 49.574 96.5047 65.971 105.306 75.1331L100.19 78.2399C91.6125 69.3029 71.6536 53.0909 56.4208 41.0633L56.0784 40.7952L23.3481 60.1542L18.2592 64.033C21.0969 102.113 38.9911 141.469 39.1776 141.874L33.1292 143.632C32.9394 143.201 13.4721 100.491 11.5565 60.5027ZM74.5693 232.348C71.4942 231.637 68.5379 230.664 65.6527 229.571L65.4594 229.493C63.5481 228.772 61.6865 227.971 59.8823 227.094C59.3772 226.845 58.9025 226.558 58.4076 226.298C57.0212 225.596 55.6739 224.846 54.3697 224.051C52.5241 222.903 50.7691 221.665 49.1146 220.347C50.9258 218.91 52.8558 217.569 54.8918 216.334C56.2072 215.533 57.604 214.828 58.9975 214.125C59.6484 213.793 60.2756 213.434 60.9435 213.12C62.8263 212.252 64.7673 211.466 66.758 210.764C66.9139 210.708 67.0664 210.646 67.2224 210.592C70.6026 209.41 74.0675 208.386 77.6748 207.722C72.5893 210.852 69.26 215.699 69.26 221.205C69.2566 225.483 71.3044 229.346 74.5693 232.348ZM127.191 224.076C125.838 224.917 124.411 225.671 122.976 226.41C122.519 226.649 122.081 226.917 121.617 227.145C119.752 228.048 117.827 228.871 115.853 229.606L115.755 229.643C112.927 230.702 110.036 231.648 107.032 232.342C110.069 229.552 111.882 226.06 112.202 222.387C112.239 221.987 112.341 221.607 112.341 221.202C112.341 220.88 112.222 220.586 112.202 220.267C112.04 217.828 111.218 215.446 109.79 213.281C108.362 211.116 106.362 209.219 103.926 207.719C107.466 208.37 110.87 209.37 114.192 210.52C114.304 210.56 114.416 210.606 114.528 210.643C116.596 211.362 118.613 212.169 120.566 213.069C121.183 213.359 121.766 213.694 122.37 213.999C123.834 214.731 125.292 215.468 126.672 216.305C128.709 217.54 130.656 218.878 132.483 220.342C130.811 221.687 129.032 222.918 127.191 224.076ZM139.342 206.161C85.1403 175.029 42.9951 205.641 42.5747 205.952L38.1673 202.226C38.6216 201.881 84.6385 168.427 143.112 202.017L139.342 206.161ZM134.961 184.489L133.917 181.924C132.829 179.257 145.2 176.45 146.353 179.275L147.397 181.841C148.485 184.508 136.114 187.314 134.961 184.489ZM144.58 135.877L143.529 129.908C143.112 127.543 155.659 125.538 155.964 127.259L157.015 133.229C157.432 135.596 144.881 137.598 144.58 135.877ZM168.753 235.972L176.259 240.239C181.541 243.242 170.244 247.53 166.491 245.397L158.985 241.129C153.7 238.127 165 233.838 168.753 235.972ZM169.973 284.962L166.756 281.552C163.142 277.724 175.059 274.028 178.188 277.341L181.405 280.751C185.02 284.578 173.103 288.275 169.973 284.962ZM175.822 257.639V253.377C175.822 248.833 188.434 247.423 188.434 252.664V256.926C188.434 261.469 175.822 262.879 175.822 257.639ZM195.93 313.153C195.93 317.523 183.341 319.04 183.341 313.936V310.526C183.341 306.157 195.93 304.64 195.93 309.744V313.153ZM187.711 233.031V230.474C187.711 227.177 200.147 225.577 200.147 227.826V230.383C200.147 233.683 187.711 235.28 187.711 233.031ZM210.874 279.826C210.874 282.608 198.438 283.975 198.438 282.474V279.065C198.438 276.282 210.874 274.915 210.874 276.416V279.826ZM220.245 253.554L218.099 257.816C216.082 261.823 203.609 261.957 206.229 256.749L208.376 252.487C210.396 248.479 222.869 248.343 220.245 253.554ZM226.799 220.307L222.442 226.244C220.872 228.383 217.34 229.455 214.322 229.201C211.986 229.002 209.071 227.416 210.617 225.306L214.973 219.369C216.543 217.229 220.076 216.157 223.093 216.412C225.436 216.61 228.348 218.2 226.799 220.307ZM228.796 188.379C226.151 189.365 222.584 189.529 220.401 187.794L217.184 185.237C214.98 183.487 218.441 181.079 220.215 180.417C222.856 179.431 226.426 179.267 228.609 181.002L231.826 183.559C234.03 185.309 230.569 187.717 228.796 188.379ZM239.238 151.191C238.217 148.334 250.646 145.667 251.673 148.543C252.216 150.06 253.033 151.218 254.44 152.331C257.142 154.47 245.493 158.083 242.815 155.965C241.116 154.648 239.882 153.002 239.238 151.191ZM275.952 216.969C275.87 217.219 275.826 217.476 275.758 217.731C275.427 218.871 275.252 220.035 275.236 221.205C275.236 222.033 275.358 222.832 275.521 223.62C275.623 224.097 275.721 224.572 275.863 225.035C276.662 227.734 278.269 230.241 280.549 232.345C279.834 232.182 279.166 231.922 278.46 231.734L278.471 231.75C278.237 231.688 278.016 231.597 277.782 231.533C275.886 231.024 274.024 230.439 272.202 229.783C270.105 229.016 268.064 228.157 266.089 227.209C265.676 227.008 265.292 226.767 264.882 226.558C263.353 225.795 261.868 224.976 260.434 224.105C258.561 222.938 256.778 221.682 255.098 220.344C256.935 218.87 258.908 217.53 260.953 216.278C262.409 215.42 263.916 214.616 265.469 213.871C266.028 213.589 266.567 213.276 267.137 213.01C269.171 212.077 271.273 211.244 273.426 210.509C273.49 210.488 273.555 210.458 273.622 210.437C276.874 209.325 280.2 208.36 283.658 207.722C279.869 210.047 277.159 213.299 275.952 216.969ZM333.245 224.022C332.018 224.789 330.722 225.475 329.424 226.156C328.882 226.445 328.356 226.759 327.8 227.035C326.071 227.879 324.288 228.651 322.46 229.351L322.138 229.482C319.182 230.611 316.158 231.619 313.005 232.345C316.269 229.346 318.317 225.48 318.317 221.202C318.317 215.696 314.988 210.85 309.902 207.719C313.584 208.397 317.117 209.448 320.558 210.665L321.182 210.895C323.081 211.576 324.932 212.332 326.735 213.168C327.454 213.506 328.136 213.892 328.837 214.254C330.153 214.927 331.475 215.597 332.723 216.358C334.726 217.591 336.662 218.902 338.463 220.347C336.817 221.653 335.075 222.88 333.245 224.022ZM345.311 206.161C291.106 175.029 248.965 205.641 248.544 205.952L244.137 202.226C244.591 201.881 290.611 168.427 349.081 202.017L345.311 206.161ZM365.439 60.5027C363.524 100.491 344.053 143.203 343.86 143.632L337.812 141.874C338.001 141.466 355.892 102.113 358.733 64.033L353.644 60.1542L320.914 40.7952L320.572 41.0633C305.339 53.0909 285.38 69.3029 276.803 78.2399L271.687 75.1331C280.488 65.9737 300.657 49.574 316.036 37.4365C320.532 33.8737 325.066 30.3406 329.638 26.8375C336.181 20.8599 342.704 17.8067 349.02 17.7612C355.638 17.7451 358.923 20.7044 359.31 21.0422L359.978 21.9563C364.324 32.4721 366.158 45.4379 365.439 60.5027Z" fill="#D24848"/>
</g>
<defs>
<clipPath id="clip0_30_12">
<rect width="377" height="386" fill="white"/>
</clipPath>
</defs>
</svg>
