<svg width="1430" height="1117" viewBox="0 0 1430 1117" fill="none" xmlns="http://www.w3.org/2000/svg">
<path d="M53.7962 1048.1C77.2709 1075.13 0 1117 0 1117H1430V4C1430 4 1400.45 10.5935 1381.58 15.13C1354 21.7623 1364.47 29.44 1311.16 33.15C1257.85 36.86 1300.89 84.03 1300.89 84.03C1300.89 84.03 1229 127.49 1229 172.54C1229 217.59 1341.48 140.21 1311.16 205.4C1280.84 270.59 1229 272.18 1280.84 373.94C1332.68 475.7 1247.41 364.822 1229 373.94C1188.7 393.895 1200.14 502.2 1229 496.9C1257.85 491.6 1300.65 576.488 1280.84 627.81C1267.62 662.043 1238.18 662.786 1212.37 687.17C1190.06 708.242 1165.63 712.641 1157.11 743.35C1143.5 792.388 1214.02 789.215 1199.47 837.932C1186.97 879.771 1164.09 868.492 1137.06 901.29C1100.77 945.318 1145.86 1048.1 1103.8 1048.1C1061.74 1048.1 1083.75 970.19 1051.96 959.06C1020.17 947.93 971.475 1023.33 911.601 1026.37C877.79 1028.09 859.27 1004.69 826.016 1011.53C797.901 1017.31 760.971 1048.1 760.971 1048.1C760.971 1048.1 723.642 1060.52 702.285 1048.1C671.406 1030.14 666.094 974.96 627.459 986.09C588.823 997.22 624.158 1039.08 603.984 1060.82C565.447 1102.34 504.037 981.803 468.516 1026.37C459.358 1037.86 460.999 1049.29 451.888 1060.82C424.48 1095.51 382.039 1096.48 344.785 1075.13C323.522 1062.94 321.37 1042.84 302.726 1026.37C280.048 1006.34 259.035 964.417 237.681 986.09C221.371 1002.64 249.506 1027.55 237.681 1048.1C225.519 1069.23 184.374 1153.04 184.374 1075.13C184.374 997.22 131.424 1072.72 111.994 1048.1C99.2236 1031.92 112.43 1004.3 93.8988 997.22C71.1584 988.529 30.3215 1021.07 53.7962 1048.1Z" fill="#D0FD50" fill-opacity="0.79" stroke="#FFD348" stroke-width="5"/>
</svg>
