<svg width="338" height="240" viewBox="0 0 338 240" fill="none" xmlns="http://www.w3.org/2000/svg">
<path d="M55.0431 153.128L194.468 226.728C195.793 227.427 197.296 227.765 198.811 227.706C200.326 227.647 201.794 227.192 203.053 226.392L273.687 181.592C274.86 180.849 275.811 179.832 276.448 178.64C277.086 177.448 277.389 176.121 277.328 174.786C277.267 173.451 276.844 172.153 276.1 171.018C275.355 169.883 274.315 168.948 273.078 168.304L140.498 99.1278C139.283 98.494 137.918 98.1616 136.531 98.1616C135.143 98.1616 133.779 98.494 132.563 99.1278L55.0769 139.512C53.7917 140.183 52.7195 141.167 51.9717 142.362C51.2239 143.558 50.8277 144.921 50.8242 146.31C50.8208 147.7 51.2102 149.065 51.9521 150.264C52.694 151.462 53.7612 152.451 55.0431 153.128Z" fill="#FFE922"/>
<path opacity="0.32" d="M214.63 185.096L167.834 211.104L178.734 216.816L224.964 191.944C218.711 187.936 220.038 190.048 214.63 185.096Z" fill="url(#paint0_linear_19_179)"/>
<path d="M243.292 170.192L258.401 167.968L245.252 180.656" fill="#FFC65A"/>
<path d="M243.293 181.216C245.771 181.216 247.78 178.748 247.78 175.704C247.78 172.66 245.771 170.192 243.293 170.192C240.815 170.192 238.806 172.66 238.806 175.704C238.806 178.748 240.815 181.216 243.293 181.216Z" fill="#68E1FD"/>
<path d="M191.925 209.696L245.252 180.656L241.611 170.592L188.097 199.744L191.925 209.696Z" fill="#68E1FD"/>
<path d="M190.175 210.128C192.653 210.128 194.662 207.66 194.662 204.616C194.662 201.572 192.653 199.104 190.175 199.104C187.697 199.104 185.688 201.572 185.688 204.616C185.688 207.66 187.697 210.128 190.175 210.128Z" fill="#68E1FD"/>
<path opacity="0.52" d="M190.175 210.128C192.653 210.128 194.662 207.66 194.662 204.616C194.662 201.572 192.653 199.104 190.175 199.104C187.697 199.104 185.688 201.572 185.688 204.616C185.688 207.66 187.697 210.128 190.175 210.128Z" fill="#505A63"/>
<path d="M258.401 168L252.655 168.8C252.655 168.8 254.793 169.48 254.176 172L258.401 168Z" fill="#895415"/>
<path style="mix-blend-mode:multiply" d="M77.4436 159.288C82.9361 154.824 86.933 150.656 92.6536 146.416L72.6525 144.504L59.9268 149.256C65.639 152.752 71.5371 156 77.4436 159.288Z" fill="url(#paint1_linear_19_179)"/>
<path d="M74.6052 136.248C74.2465 136.246 73.8922 136.173 73.5658 136.032L73.4053 137.032L90.3053 137.44V136.248H74.6052Z" fill="#EF8A3F"/>
<path d="M73.5574 136.064L73.4053 137.024L82.7425 142.128V140.888C79.5991 139.448 76.5656 137.784 73.5574 136.064Z" fill="#EF8A3F"/>
<path d="M82.9874 67.0238C82.4351 67.1104 81.8681 67.0321 81.365 66.7998L70.6504 145.088C71.301 145.464 71.977 145.8 72.6361 146.152L83.4775 66.9518L82.9874 67.0238Z" fill="#EF8A3F"/>
<path d="M85.4549 66.936C85.0646 66.9765 84.6707 66.9765 84.2804 66.936C83.9677 66.936 83.6466 66.936 83.334 66.984L90.5756 147.256C91.1258 147.001 91.6899 146.774 92.2656 146.576L92.5529 146.44H92.6036L85.4549 66.936Z" fill="#EF8A3F"/>
<path d="M84.2802 66.936C83.8476 66.9381 83.4157 66.9675 82.9873 67.024C82.8186 67.0367 82.649 67.0367 82.4803 67.024L81.7705 151.824C82.1333 151.702 82.5237 151.671 82.9028 151.736H83.5112H83.8661L84.5759 66.936H84.2802Z" fill="#EF8A3F"/>
<path d="M72.5938 68.2881V85.8241C72.5938 85.8241 93.9046 86.4241 93.9046 85.8241V68.2881" fill="#68E1FD"/>
<path d="M83.2492 72.928C89.134 72.928 93.9046 70.8363 93.9046 68.256C93.9046 65.6757 89.134 63.584 83.2492 63.584C77.3644 63.584 72.5938 65.6757 72.5938 68.256C72.5938 70.8363 77.3644 72.928 83.2492 72.928Z" fill="#68E1FD"/>
<path opacity="0.46" d="M83.2492 72.928C89.134 72.928 93.9046 70.8363 93.9046 68.256C93.9046 65.6757 89.134 63.584 83.2492 63.584C77.3644 63.584 72.5938 65.6757 72.5938 68.256C72.5938 70.8363 77.3644 72.928 83.2492 72.928Z" fill="#091114"/>
<path d="M83.2492 90.76C89.134 90.76 93.9046 88.6683 93.9046 86.088C93.9046 83.5077 89.134 81.416 83.2492 81.416C77.3644 81.416 72.5938 83.5077 72.5938 86.088C72.5938 88.6683 77.3644 90.76 83.2492 90.76Z" fill="#68E1FD"/>
<path d="M222.565 119.872C222.565 116.2 216.506 116.192 216.531 119.872C216.65 135.632 217.303 151.365 218.492 167.072C218.771 170.712 224.795 170.744 224.525 167.072C223.336 151.365 222.683 135.632 222.565 119.872Z" fill="#091114"/>
<path d="M185.122 106.768L163.659 134.592C161.369 137.56 166.6 140.416 168.865 137.472L190.328 109.648C192.66 106.68 187.387 103.832 185.122 106.768Z" fill="#091114"/>
<path d="M268.211 74.1759L155.48 12.7359C154.976 12.4617 154.407 12.3126 153.826 12.3023C153.245 12.2921 152.67 12.4211 152.156 12.6773C151.642 12.9335 151.204 13.3087 150.884 13.7679C150.564 14.2271 150.372 14.7555 150.325 15.3039L143.092 100.44C143.04 101.058 143.175 101.678 143.482 102.227C143.789 102.775 144.254 103.229 144.824 103.536L255.164 162.736C255.661 163.001 256.218 163.146 256.788 163.157C257.358 163.168 257.922 163.045 258.429 162.799C258.936 162.553 259.371 162.193 259.695 161.749C260.019 161.305 260.222 160.792 260.285 160.256L269.91 77.3599C269.983 76.7304 269.862 76.0942 269.56 75.5288C269.259 74.9635 268.79 74.4934 268.211 74.1759Z" fill="#D15713"/>
<path d="M256.913 94.7121L209.146 69.3921L202.504 122.272L250.39 147.736L256.913 94.7121Z" fill="#68E1FD"/>
<path d="M166.464 38.5518C166.464 38.5518 166.532 57.0878 162.975 60.7678L177.787 68.9598C179.323 67.0894 180.352 64.8924 180.787 62.5598C181.108 60.4718 182.181 46.6638 182.181 46.6638L166.464 38.5518Z" fill="#68E1FD"/>
<path d="M184.573 48.4639C184.573 48.4639 184.64 66.9999 181.083 70.6799L195.904 78.8719C197.44 77.0015 198.469 74.8045 198.904 72.4719C199.225 70.3999 200.265 56.5919 200.265 56.5919L184.573 48.4639Z" fill="#68E1FD"/>
<path d="M222.175 72.9199L220.536 78.8879L247.399 92.7279L249.3 87.5119L222.175 72.9199Z" fill="#091114"/>
<path d="M192.786 54.7199C194.168 54.7199 195.288 53.6597 195.288 52.3519C195.288 51.0441 194.168 49.9839 192.786 49.9839C191.405 49.9839 190.285 51.0441 190.285 52.3519C190.285 53.6597 191.405 54.7199 192.786 54.7199Z" fill="#E28133"/>
<path d="M190.141 116.904L194.671 83.8079L164.191 66.5039L190.141 116.904Z" fill="#AD3C04"/>
<path d="M163.33 66.9277L190.142 81.7677V116.904L163.33 101.712V66.9277Z" fill="#FF876A"/>
<path d="M175.844 44.6239C177.197 44.6239 178.295 43.5852 178.295 42.3039C178.295 41.0226 177.197 39.9839 175.844 39.9839C174.491 39.9839 173.394 41.0226 173.394 42.3039C173.394 43.5852 174.491 44.6239 175.844 44.6239Z" fill="#E28133"/>
<path opacity="0.32" d="M145.044 160.264L84.9395 192.192L106.909 204.64L165.705 173.016C157.778 167.904 151.931 166.56 145.044 160.264Z" fill="url(#paint2_linear_19_179)"/>
<path d="M163.406 75.496C163.406 75.496 162.916 72.296 163.406 71.112C163.811 69.5982 164.074 68.0535 164.192 66.496C164.512 66.4276 164.847 66.4709 165.136 66.6179C165.425 66.7649 165.648 67.0057 165.764 67.296C166.229 68.36 165.257 70.976 165.257 70.976C165.257 70.976 168.028 76.424 165.257 78.904C162.485 81.384 163.406 75.496 163.406 75.496Z" fill="#FFAC99"/>
<path d="M145.002 92.5041L163.406 75.4961C163.406 75.4961 167.572 84.0721 163.406 88.0001L146.506 103.904" fill="#091114"/>
<path d="M141.562 162.824C141.562 162.824 139.027 166.16 139.23 168.112C139.433 170.064 142.678 173.352 143.413 174.744C144.148 176.136 144.342 176.752 143.413 177.768C142.483 178.784 134.566 172.248 134.354 171.2C134.143 170.152 135.461 166.144 135.461 166.144L131.946 170.352L129.411 168.92L134.844 160.256" fill="#EA7554"/>
<path d="M142.568 177.872C142.357 177.672 136.078 175.608 136.078 175.608C136.078 175.608 133.129 172.704 133.214 171.608C133.298 170.512 134.38 166.104 135.478 166.152C136.577 166.2 136.704 172.016 136.704 172.016L142.568 177.872Z" fill="#AF4127"/>
<path d="M150.038 168.36L150.883 177.248C150.883 177.248 152.911 178.656 153.418 178.528C153.925 178.4 155.404 178.04 155.421 177.816C155.438 177.592 154.702 171.536 154.914 171.416C155.125 171.296 158.235 176.04 159.206 176.144C160.178 176.248 167.656 172.144 166.913 170.592C166.169 169.04 162.603 169.848 160.829 169.84C159.605 169.785 158.426 169.39 157.439 168.704C156.451 168.018 155.699 167.072 155.277 165.984" fill="#EA7554"/>
<path d="M154.744 144.28L159.29 167.064C159.29 167.064 156.663 170.312 147.283 169.904L140.27 153.744" fill="#FFC65A"/>
<path d="M156.756 108.52C156.756 108.52 163.761 118.2 161.606 133.864C159.697 147.752 145.044 164.112 145.044 164.112C145.044 164.112 140.659 165.944 131.524 157.776L141.588 142.632C141.588 142.632 131.778 121.12 143.363 107.432" fill="#FFC65A"/>
<path d="M176.503 89.9519C176.503 89.6952 176.611 89.4489 176.803 89.2674C176.994 89.0859 177.254 88.9839 177.526 88.9839C177.797 88.9839 178.057 89.0859 178.249 89.2674C178.44 89.4489 178.548 89.6952 178.548 89.9519C178.548 90.5999 178.548 91.2559 178.548 91.9039L178.776 91.4799C179.576 89.6774 180.173 87.8005 180.559 85.8799C180.813 84.6319 182.705 85.1919 182.528 86.3919C182.392 87.3331 182.183 88.2636 181.903 89.1759L182.106 89.0959C182.279 89.0462 182.46 89.0301 182.64 89.0485C182.82 89.067 182.994 89.1196 183.152 89.2033C183.31 89.287 183.448 89.3999 183.559 89.5354C183.669 89.6709 183.75 89.8262 183.796 89.9919C183.896 90.2892 183.914 90.6062 183.846 90.9119H183.998C184.222 90.9794 184.425 91.0962 184.591 91.2526C184.757 91.4091 184.882 91.6007 184.954 91.8116C185.027 92.0226 185.045 92.2469 185.009 92.466C184.972 92.6851 184.88 92.8928 184.742 93.0719C184.996 93.262 185.169 93.5314 185.232 93.8319C185.277 94.1728 185.222 94.5189 185.073 94.8321C184.924 95.1454 184.686 95.4138 184.387 95.6079C183.686 96.1599 182.917 96.8799 182.275 97.4719C181.43 98.2719 180.475 99.0239 179.689 99.6479C178.903 100.272 177.602 98.2159 177.585 97.5279C177.439 97.5727 177.284 97.5829 177.133 97.5578C176.982 97.5326 176.84 97.4728 176.719 97.3836C176.598 97.2944 176.502 97.1785 176.439 97.0461C176.377 96.9136 176.349 96.7687 176.36 96.6239C176.523 94.4105 176.571 92.1865 176.503 89.9519Z" fill="#FFAC99"/>
<path d="M180.594 91.9998C181.078 91.0452 181.523 90.0772 181.929 89.0958C182.013 88.8878 182.377 88.9758 182.284 89.1918C181.867 90.2052 181.41 91.1998 180.915 92.1758C180.83 92.3998 180.484 92.2238 180.594 91.9998Z" fill="#AF594A"/>
<path d="M155.691 87.1597C157.447 88.6464 159.033 90.3035 160.423 92.1037C161.742 94.1277 167.048 99.6637 169.228 97.9997C171.408 96.3357 175.278 93.1517 175.278 93.1517C175.278 93.1517 180.796 96.7437 180.222 100.48C180.222 100.48 175.321 109.96 167.682 107.864C160.043 105.768 158.142 103.064 158.142 103.064L156.984 109.224C156.984 109.224 147.503 112.032 143.118 107.864C143.118 107.864 140.236 90.1517 142.357 87.5117" fill="#091114"/>
<path d="M156.747 76.4318C156.815 76.6398 156.984 83.0638 154.677 83.6318C152.37 84.1998 148.449 82.7198 147.427 80.6798C146.404 78.6398 147.866 72.1598 151.5 71.7838C155.133 71.4078 156.096 74.5598 156.747 76.4318Z" fill="#FFAC99"/>
<path d="M153.951 77.5999C152.43 78.5759 153.393 80.4239 154.035 81.5999C154.513 82.5107 154.745 83.5194 154.711 84.5359C154.692 85.4858 155.044 86.4091 155.7 87.1279C156.207 87.7304 156.641 88.3853 156.993 89.0799C153.624 89.6599 150.177 89.7004 146.794 89.1999C144.007 88.9871 141.234 88.6346 138.487 88.1439C138.52 87.5927 138.655 87.0512 138.884 86.5439C139.535 85.1279 140.574 84.3679 140.355 82.7039C140.16 81.4159 139.814 80.1519 140.287 78.8799C140.76 77.6079 141.977 76.9599 143.067 76.1839C143.393 75.9582 143.699 75.7066 143.98 75.4319L144.216 75.0479C144.777 73.8834 145.462 72.7762 146.261 71.7439C147.153 70.8977 148.303 70.338 149.548 70.1439C150.848 69.9169 152.184 69.9416 153.473 70.2166C154.763 70.4916 155.98 71.0112 157.052 71.7439C157.052 71.7439 159.029 73.5439 158.412 75.4719C157.796 77.3999 155.311 76.7439 153.951 77.5999Z" fill="#E28133"/>
<path d="M155.683 148.976C155.683 148.976 147.663 162.12 145.044 164.12L147.275 169.904C147.275 169.904 156.595 157.52 155.683 148.976Z" fill="#EA7554"/>
<path d="M141.773 141.936C144.333 136.819 145.757 131.259 145.956 125.6C145.956 125.152 146.717 125.144 146.7 125.6C146.494 131.384 145.036 137.067 142.416 142.296C142.213 142.696 141.571 142.344 141.773 141.936Z" fill="#EA7554"/>
<defs>
<linearGradient id="paint0_linear_19_179" x1="177.112" y1="215.912" x2="186.676" y2="207.955" gradientUnits="userSpaceOnUse">
<stop stop-color="white" stop-opacity="0"/>
<stop offset="0.98" stop-color="#AA6800"/>
</linearGradient>
<linearGradient id="paint1_linear_19_179" x1="88.8342" y1="131.488" x2="70.5208" y2="158.034" gradientUnits="userSpaceOnUse">
<stop stop-color="#F15A24"/>
<stop offset="1" stop-color="white"/>
</linearGradient>
<linearGradient id="paint2_linear_19_179" x1="104.248" y1="195.688" x2="149.292" y2="164.498" gradientUnits="userSpaceOnUse">
<stop stop-color="white" stop-opacity="0"/>
<stop offset="0.98" stop-color="#AA6800"/>
</linearGradient>
</defs>
</svg>
