<svg width="275" height="194" viewBox="0 0 275 194" fill="none" xmlns="http://www.w3.org/2000/svg">
<path d="M44.1788 137.455L130.121 184.143C131.211 184.731 132.445 185.04 133.701 185.04C134.957 185.04 136.192 184.731 137.282 184.143L236.43 131.123C237.043 130.791 237.552 130.314 237.907 129.738C238.261 129.162 238.447 128.509 238.447 127.844C238.447 127.178 238.261 126.525 237.907 125.949C237.552 125.373 237.043 124.896 236.43 124.564L148.113 76.5048C147.686 76.2698 147.2 76.146 146.706 76.146C146.211 76.146 145.726 76.2698 145.299 76.5048L44.1514 132.933C43.7339 133.167 43.3885 133.499 43.1496 133.897C42.9106 134.295 42.7863 134.744 42.7891 135.202C42.7919 135.659 42.9216 136.107 43.1653 136.502C43.4091 136.898 43.7584 137.226 44.1788 137.455Z" fill="#FFD348"/>
<path opacity="0.32" d="M150.982 148.176C150.933 148.106 150.908 148.024 150.908 147.941C150.908 147.857 150.933 147.775 150.982 147.705C151.078 147.544 148.503 147.061 148.599 146.894C148.722 146.494 147.066 146.41 147.182 146.011C142.841 144.201 141.951 143.576 138.651 140.574L103.79 158.851L118.119 166.543L150.749 149.097C150.817 148.788 150.895 148.481 150.982 148.176Z" fill="url(#paint0_linear_15_526)"/>
<path opacity="0.32" d="M228.536 128.533C228.488 128.463 228.462 128.381 228.462 128.298C228.462 128.214 228.488 128.133 228.536 128.063L228.824 127.573C228.947 127.174 229.07 126.781 229.18 126.381C224.839 124.571 219.499 123.933 216.172 120.931L181.311 139.208L195.64 146.9L228.283 129.448C228.365 129.139 228.45 128.834 228.536 128.533Z" fill="url(#paint1_linear_15_526)"/>
<path d="M121.439 25.6237L137.542 16.8815C137.912 16.6803 138.332 16.5743 138.76 16.5742C139.188 16.5741 139.608 16.6799 139.978 16.881C140.349 17.0821 140.656 17.3713 140.87 17.7197C141.085 18.0681 141.197 18.4633 141.198 18.8657V28.7031C141.195 29.1055 141.079 29.5002 140.863 29.8473C140.647 30.1945 140.337 30.482 139.965 30.6809L123.897 39.6035C123.527 39.8093 123.105 39.9192 122.675 39.922C122.245 39.9248 121.822 39.8205 121.448 39.6196C121.075 39.4188 120.765 39.1285 120.549 38.7783C120.333 38.4281 120.22 38.0304 120.221 37.6257V27.6079C120.221 27.2057 120.334 26.8106 120.548 26.4623C120.762 26.114 121.069 25.8248 121.439 25.6237Z" fill="#ED1C24"/>
<path d="M129.197 24.5671C129.197 26.2486 129.197 31.0094 129.197 32.897C129.197 32.964 129.218 33.0294 129.256 33.0858C129.295 33.1421 129.349 33.187 129.414 33.2154C129.478 33.2437 129.55 33.2542 129.621 33.2458C129.691 33.2373 129.758 33.2102 129.813 33.1676L136.371 28.0524C136.419 28.0149 136.456 27.967 136.479 27.9129C136.502 27.8587 136.511 27.8 136.504 27.742C136.497 27.684 136.475 27.6285 136.44 27.5804C136.405 27.5322 136.358 27.493 136.303 27.4662L129.758 24.245C129.7 24.214 129.634 24.1982 129.567 24.1993C129.5 24.2003 129.434 24.2182 129.377 24.251C129.32 24.2839 129.273 24.3305 129.241 24.386C129.209 24.4416 129.194 24.5041 129.197 24.5671Z" fill="white"/>
<path d="M148.647 79.0239C149.332 79.5393 152.002 96.8176 151.584 98.0545C151.166 99.2914 147.079 101.179 147.079 101.179" fill="#159E97"/>
<path d="M124.274 78.8561L124.014 78.4181C124.103 78.3692 124.171 78.2911 124.204 78.1986C124.237 78.106 124.232 78.0053 124.192 77.9156C123.973 77.4453 123.74 76.975 123.507 76.5047C123.521 76.4475 123.521 76.388 123.507 76.3308C123.203 75.2821 123.074 74.1955 123.124 73.1096C123.226 72.2334 123.5 71.3959 123.596 70.5327C123.596 70.217 123.247 70.1139 123 70.2106C122.788 70.3054 122.62 70.4705 122.528 70.6744C122.239 71.0682 122.054 71.5208 121.987 71.9951C121.967 71.7912 121.914 71.5913 121.83 71.4024L121.645 70.6873C121.556 70.3095 121.423 69.9422 121.248 69.5921C121.07 69.2635 120.673 69.1154 120.474 69.328C120.173 69.6501 120.474 70.2428 120.522 70.6164C120.57 70.9901 120.645 71.3251 120.748 71.7052C120.59 71.3508 120.276 70.7388 120.063 70.3072C119.906 69.9786 119.454 68.9092 118.947 69.0509C118.441 69.1927 118.687 69.9271 118.824 70.275L119.214 71.2671C119.331 71.5634 119.461 71.95 119.598 72.2206C119.598 72.2206 119.071 71.499 118.81 71.1125C118.55 70.7259 118.379 70.3652 117.9 70.5005C117.592 70.5907 117.612 71.0158 117.756 71.2671C118.133 71.9113 118.557 72.5942 118.995 73.1998C118.715 72.955 118.441 72.6973 118.146 72.4589C118.085 72.4067 118.008 72.3731 117.926 72.3626C117.844 72.352 117.761 72.365 117.687 72.3998C117.613 72.4346 117.552 72.4897 117.512 72.5577C117.472 72.6257 117.454 72.7035 117.462 72.781C117.458 72.8522 117.48 72.9224 117.523 72.9808L121.159 77.8962C121.515 78.6772 122.016 79.3927 122.638 80.0093C122.987 80.3572 123.541 79.8289 123.192 79.4875L123.144 79.4359C123.146 79.4166 123.146 79.3973 123.144 79.378C123.204 79.3659 123.259 79.3418 123.308 79.3073C123.356 79.2728 123.396 79.2288 123.425 79.1783C123.462 79.2019 123.504 79.2193 123.548 79.2298C123.601 79.3203 123.689 79.3875 123.795 79.4165C123.9 79.4455 124.013 79.434 124.109 79.3844C124.206 79.3349 124.277 79.2514 124.308 79.1523C124.339 79.0532 124.326 78.9467 124.274 78.8561Z" fill="#FFB7A2"/>
<path d="M121.481 72.2401C121.175 72.469 120.935 72.765 120.779 73.102C120.624 73.439 120.559 73.8067 120.591 74.1728C120.591 74.3403 120.885 74.3403 120.871 74.1728C120.839 73.8395 120.896 73.5039 121.037 73.1967C121.178 72.8894 121.399 72.6204 121.679 72.4141C121.816 72.3496 121.618 72.1628 121.481 72.2401Z" fill="#42342D"/>
<path d="M121.098 71.8666C120.897 71.1751 120.728 70.4793 120.591 69.7793C120.591 69.6118 120.29 69.6826 120.324 69.8501C120.461 70.5545 120.63 71.2502 120.831 71.9374C120.841 71.9707 120.864 71.999 120.896 72.0159C120.928 72.0328 120.966 72.037 121.002 72.0276C121.037 72.0182 121.067 71.996 121.085 71.9658C121.103 71.9356 121.108 71.8999 121.098 71.8666Z" fill="#42342D"/>
<path d="M119.919 72.4464C119.543 71.6797 119.236 70.8845 119.002 70.0692C118.997 70.0527 118.988 70.0373 118.977 70.0238C118.966 70.0104 118.952 69.9991 118.936 69.9908C118.92 69.9824 118.903 69.977 118.885 69.975C118.866 69.973 118.848 69.9744 118.831 69.979C118.813 69.9837 118.797 69.9915 118.782 70.0021C118.768 70.0128 118.756 70.0259 118.747 70.0409C118.738 70.0558 118.733 70.0723 118.73 70.0893C118.728 70.1063 118.73 70.1236 118.735 70.1401C118.976 70.9775 119.292 71.7942 119.679 72.5817C119.755 72.7363 119.994 72.601 119.919 72.4464Z" fill="#42342D"/>
<path d="M119.488 73.4771C118.895 72.8321 118.394 72.1175 117.996 71.3512C117.914 71.1965 117.674 71.3512 117.756 71.4864C118.168 72.2719 118.685 73.0038 119.297 73.6639C119.427 73.7928 119.605 73.606 119.488 73.4771Z" fill="#42342D"/>
<path d="M146.004 136.947C146.004 136.947 145.798 142.152 146.819 143.724C147.839 145.296 152.878 147.95 151.542 149.065C150.207 150.179 147.065 149.619 146.018 148.421C145.329 147.548 144.702 146.633 144.142 145.683V147.654C144.142 147.654 142.04 146.475 142.04 146.398C142.04 146.32 141.554 134.653 141.554 134.653" fill="#42342D"/>
<path d="M138.356 139.137C138.356 139.137 138.151 144.33 139.171 145.895C140.191 147.461 145.504 151.049 144.162 152.164C142.82 153.278 139.685 152.254 138.384 150.733C137.655 149.838 137.018 148.881 136.481 147.873V149.838C136.481 149.838 134.365 148.665 134.358 148.588C134.351 148.511 133.872 136.876 133.872 136.876" fill="#42342D"/>
<path d="M148.373 95.2972C148.64 95.9414 151.111 134.061 148.503 138.912C146.394 139.943 144.028 140.415 141.656 140.277L140.773 143.106C140.773 143.106 134.379 144.974 129.764 143.157C129.764 143.157 127.094 109.116 135.241 95.1426" fill="#F679BD"/>
<path d="M148.455 94.8717C148.612 93.1259 148.612 90.8131 148.646 90.4072C148.724 89.3678 148.795 88.3285 148.859 87.2891C148.936 86.0307 149.003 84.7702 149.057 83.5075C149.139 81.6908 149.359 79.5584 148.023 78.0637C146.688 76.5691 143.58 75.9958 141.519 76.247C139.389 76.6087 137.484 77.7158 136.186 79.3458C135.495 84.5917 135.184 89.8759 135.255 95.1616C139.24 96.2633 145.333 97.3198 148.455 94.8717Z" fill="#27D9D3"/>
<path d="M141.225 76.5437C139.576 76.6211 137.975 77.0886 136.57 77.903C135.502 78.5473 134.892 79.6231 133.735 80.1643C132.181 80.8987 129.908 80.8923 128.635 79.6553C127.947 78.9478 127.3 78.2058 126.697 77.4327C126.218 76.8594 124.253 73.8573 123.219 74.2116C122.007 74.6368 120.269 76.2409 120.193 77.1493C120.118 78.0576 125.239 87.56 129.778 88.2236C132.6 88.5754 135.464 87.9776 137.864 86.5357" fill="#27D9D3"/>
<path d="M140.137 74.8813V77.6C141.274 77.9322 142.491 77.9322 143.628 77.6V75.1584" fill="#FCAA97"/>
<path d="M146.175 68.6322C146.381 68.6773 147.654 76.7752 144.087 76.8397C140.52 76.9041 139.829 74.2628 139.719 73.5799C139.61 72.897 140.746 70.8483 141.089 70.0817C141.431 69.3151 145.299 68.4325 146.175 68.6322Z" fill="#FFB7A2"/>
<path d="M146.614 67.814C145.539 65.9844 141.369 65.5656 138.467 68.0717C137.719 68.8126 137.3 69.7943 137.296 70.8161C137.369 71.8268 137.724 72.8015 138.325 73.6419C138.926 74.4823 139.752 75.1586 140.719 75.6028C140.719 75.6028 140.719 75.4997 140.719 75.4546C140.719 75.4095 140.719 75.3837 140.719 75.3451C140.362 73.8457 140.528 72.278 141.191 70.8741C141.876 69.5856 143.334 69.2377 144.745 69.0316C145.191 68.9221 145.653 68.8786 146.114 68.9027L146.573 70.9836C146.919 70.5209 147.108 69.9705 147.115 69.4048C147.123 68.8391 146.948 68.2845 146.614 67.814Z" fill="#EDB033"/>
<path d="M136.135 71.3798C137.648 71.2807 138.789 70.0466 138.684 68.6233C138.578 67.2 137.267 66.1265 135.754 66.2255C134.242 66.3245 133.101 67.5586 133.206 68.9819C133.311 70.4052 134.623 71.4788 136.135 71.3798Z" fill="#EDB033"/>
<path d="M146.593 70.3075H143.204L142.889 69.3541L142.594 70.5395L141.629 70.5974C141.629 70.5974 141.581 75.4872 140.842 75.5967C140.102 75.7062 139.062 73.5996 138.952 72.3755C138.842 71.1515 139.561 68.5101 142.005 67.7886C145.079 66.8867 146.449 68.0399 146.593 70.3075Z" fill="#EDB033"/>
<path d="M143.868 104.413C143.444 116.4 142.563 128.361 141.226 140.297C141.185 140.664 141.801 140.664 141.842 140.297C143.179 128.37 144.06 116.409 144.484 104.413C144.498 104.046 143.882 104.046 143.868 104.413Z" fill="white"/>
<path d="M79.7178 77.5617V139.608C79.7173 140.28 79.9059 140.94 80.2643 141.521C80.6228 142.102 81.1383 142.584 81.7586 142.917C82.3789 143.25 83.0818 143.423 83.796 143.417C84.5101 143.412 85.2101 143.229 85.8247 142.887L180.612 90.2466C180.939 90.0659 181.21 89.808 181.399 89.4984C181.587 89.1888 181.687 88.8382 181.687 88.4814V27.7304C181.687 27.1269 181.519 26.5338 181.199 26.0106C180.879 25.4874 180.419 25.0523 179.865 24.749C179.31 24.4457 178.681 24.2848 178.039 24.2823C177.398 24.2797 176.767 24.4358 176.21 24.7347L80.8269 75.7772C80.4905 75.9554 80.2105 76.2145 80.0156 76.5281C79.8207 76.8417 79.7179 77.1984 79.7178 77.5617ZM172.184 84.8544L90.5213 129.132C90.19 129.312 89.8142 129.407 89.4317 129.407C89.0491 129.407 88.6734 129.312 88.3423 129.131C88.0112 128.951 87.7365 128.692 87.5457 128.38C87.3549 128.068 87.2548 127.714 87.2556 127.354V80.6153C87.2555 80.2544 87.3568 79.8999 87.5492 79.5877C87.7415 79.2754 88.0181 79.0166 88.351 78.8372L170.028 34.8749C170.359 34.6966 170.734 34.6032 171.115 34.6042C171.497 34.6052 171.871 34.7005 172.201 34.8806C172.531 35.0606 172.805 35.3192 172.996 35.6302C173.186 35.9413 173.286 36.294 173.286 36.653V83.0763C173.287 83.4366 173.187 83.7906 172.996 84.1028C172.805 84.415 172.529 84.6742 172.198 84.8544H172.184Z" fill="#68E1FD"/>
<path d="M92.5686 124.88L160.422 88.0171L170.089 82.7666C170.148 82.7345 170.199 82.6918 170.24 82.641C170.281 82.5903 170.311 82.5325 170.328 82.4708C170.345 82.4092 170.349 82.345 170.34 82.2819C170.331 82.2188 170.308 82.158 170.274 82.103C170.24 82.0481 170.195 81.9999 170.141 81.9614C170.087 81.9229 170.025 81.8948 169.96 81.8786C169.895 81.8625 169.826 81.8586 169.759 81.8673C169.692 81.876 169.628 81.897 169.569 81.9291L101.715 118.792L92.0414 124.049C91.9234 124.114 91.8376 124.22 91.803 124.345C91.7683 124.469 91.7876 124.601 91.8566 124.712C91.9256 124.824 92.0387 124.904 92.1709 124.937C92.3031 124.969 92.4437 124.951 92.5618 124.886L92.5686 124.88Z" fill="#B3B3B3"/>
<path d="M65.0049 73.013V100.792C65.0049 101.064 65.0809 101.332 65.2254 101.568C65.3699 101.804 65.5778 102 65.8282 102.136C66.0785 102.272 66.3626 102.344 66.6519 102.345C66.9412 102.345 67.2255 102.274 67.4764 102.139L108.554 79.8934C108.806 79.7574 109.015 79.5613 109.161 79.3249C109.306 79.0885 109.383 78.8201 109.383 78.547V50.4005C109.381 50.1315 109.305 49.8674 109.163 49.6342C109.02 49.4011 108.816 49.2067 108.569 49.0703C108.323 48.9339 108.043 48.8601 107.757 48.8561C107.471 48.8522 107.189 48.9182 106.939 49.0477L66.1551 71.1448C65.8059 71.3337 65.5157 71.6059 65.3138 71.9338C65.1119 72.2618 65.0054 72.634 65.0049 73.013Z" fill="#EDB033"/>
<path d="M70.8037 72.6523V97.0558L104.981 78.5599V54.1436L70.8037 72.6523Z" fill="white"/>
<path d="M70.8174 97.0559L79.033 80.0224C79.4367 79.1821 80.1773 78.5262 81.0932 78.1979C82.009 77.8696 83.0257 77.8955 83.9212 78.2701L87.94 79.9515L95.7722 67.5372C95.9551 67.2457 96.2014 66.9938 96.495 66.7981C96.7885 66.6024 97.1227 66.4673 97.4757 66.4016C97.8286 66.3359 98.1923 66.3412 98.5429 66.417C98.8935 66.4927 99.2232 66.6374 99.5103 66.8414L105.028 70.7519V78.5664L70.8174 97.0559Z" fill="#27D9D3"/>
<path d="M170.774 58.0285L186.877 49.2863C187.247 49.0851 187.667 48.9791 188.095 48.979C188.523 48.9789 188.943 49.0847 189.313 49.2858C189.684 49.4868 189.991 49.7761 190.205 50.1245C190.42 50.4728 190.532 50.8681 190.533 51.2705V61.1079C190.533 61.5072 190.423 61.8997 190.213 62.2466C190.003 62.5934 189.7 62.8827 189.335 63.0857L173.232 72.0083C172.862 72.2141 172.44 72.3239 172.01 72.3268C171.58 72.3296 171.157 72.2253 170.783 72.0244C170.41 71.8236 170.1 71.5333 169.884 71.1831C169.668 70.8329 169.555 70.4352 169.556 70.0305V59.9998C169.558 59.5998 169.672 59.2073 169.886 58.8615C170.1 58.5157 170.406 58.2285 170.774 58.0285Z" fill="#F24C4C"/>
<path d="M178.818 68.3938L181.735 71.6923L184.117 65.3853" fill="#F24C4C"/>
<path d="M180.105 59.9222C180.105 59.9222 178.134 56.9201 176.189 59.1942C175.073 60.4827 177.1 64.4576 180.003 64.8699C182.632 65.2435 186.329 56.7654 182.645 56.6752C180.263 56.6108 180.105 59.9222 180.105 59.9222Z" fill="white"/>
<path d="M227.146 113.136C226.654 112.137 224.463 111.383 221.841 111.383C219.218 111.383 216.925 112.176 216.507 113.213C213.42 117.278 210.387 123.894 214.18 128.327C215.098 129.337 216.242 130.146 217.529 130.696C218.816 131.246 220.215 131.523 221.628 131.509H222.087C223.499 131.525 224.898 131.249 226.185 130.702C227.472 130.154 228.616 129.348 229.536 128.339C233.349 123.862 230.248 117.188 227.146 113.136Z" fill="#68E1FD"/>
<path opacity="0.5" d="M221.84 115.745C224.827 115.745 227.249 114.767 227.249 113.561C227.249 112.355 224.827 111.377 221.84 111.377C218.853 111.377 216.432 112.355 216.432 113.561C216.432 114.767 218.853 115.745 221.84 115.745Z" fill="black"/>
<path d="M228.159 95.0392C224.809 100.366 222.747 106.323 222.121 112.485C222.13 105.037 221.412 97.6033 219.978 90.2783C219.923 90.0206 219.506 90.1302 219.554 90.3879C221.169 98.5797 221.882 106.906 221.683 115.236C221.682 115.268 221.689 115.3 221.704 115.329C221.719 115.357 221.742 115.382 221.769 115.401C221.797 115.419 221.83 115.431 221.864 115.435C221.897 115.439 221.932 115.434 221.964 115.423C221.964 115.481 221.964 115.545 221.964 115.603C221.964 115.658 221.987 115.71 222.028 115.749C222.069 115.787 222.125 115.809 222.183 115.809C222.241 115.809 222.296 115.787 222.338 115.749C222.379 115.71 222.402 115.658 222.402 115.603C222.56 108.431 224.682 101.419 228.563 95.2454C228.592 95.195 228.599 95.1358 228.582 95.0808C228.564 95.0258 228.525 94.9796 228.471 94.9522C228.417 94.9249 228.354 94.9187 228.296 94.935C228.238 94.9513 228.189 94.9888 228.159 95.0392Z" fill="#FE6162"/>
<path d="M224.737 101.817C224.737 101.817 228.085 91.6829 235.273 87.9399C235.273 87.9399 233.815 89.9499 234.5 91.5927C235.184 93.2355 236.246 96.1603 232.85 97.8096C229.454 99.4588 227.51 97.8096 227.797 101.031C228.085 104.252 229.433 105.785 227.256 107.338C225.079 108.89 223.217 110.243 222.464 113.587C222.491 113.561 223.313 105.186 224.737 101.817Z" fill="#FE6162"/>
<path d="M221.546 100.747C221.546 100.747 220.177 85.1828 217.246 81.2466C217.47 82.7511 217.185 84.2838 216.432 85.6273C215.172 87.8757 213.816 88.6617 214.542 91.5929C215.268 94.5242 218.225 93.9379 217.965 96.8756C217.705 99.8133 215.227 99.2593 216.452 102.957C217.678 106.655 221.881 109.097 221.881 109.097" fill="#FE6162"/>
<path d="M94.2627 124.587C94.6052 123.465 94.1522 122.358 93.251 122.115C92.3497 121.871 91.3415 122.583 90.999 123.704C90.6565 124.826 91.1095 125.933 92.0108 126.177C92.912 126.42 93.9203 125.708 94.2627 124.587Z" fill="#3C6071"/>
<defs>
<linearGradient id="paint0_linear_15_526" x1="116.593" y1="160.319" x2="136.374" y2="147.03" gradientUnits="userSpaceOnUse">
<stop stop-color="white" stop-opacity="0"/>
<stop offset="0.98" stop-color="#F15A24"/>
</linearGradient>
<linearGradient id="paint1_linear_15_526" x1="193.031" y1="140.806" x2="216.084" y2="126.493" gradientUnits="userSpaceOnUse">
<stop stop-color="white" stop-opacity="0"/>
<stop offset="0.98" stop-color="#F15A24"/>
</linearGradient>
</defs>
</svg>
