<svg width="239" height="169" viewBox="0 0 239 169" fill="none" xmlns="http://www.w3.org/2000/svg">
<path opacity="0.42" d="M54.2754 157.337C54.2754 157.337 34.993 158.605 27.0676 155.548C19.1422 152.491 24.8356 143.713 32.5522 141.801C40.2687 139.888 44.9475 150.393 48.397 140.679C51.8464 130.964 60.858 126.123 66.617 132.731C72.3761 139.338 78.2664 141.442 84.3597 135.535C90.4529 129.629 96.0687 134.453 98.5454 143.107C101.022 151.762 129.662 135.154 140.637 138.396C151.612 141.638 159.937 151.19 166.639 140.881C173.341 130.571 181.267 127.896 185.737 134.004C190.207 140.112 191.627 147.37 199.552 141.857C207.478 136.343 218.244 141.296 215.194 147.774C212.145 154.252 191.723 156.457 191.723 156.457C191.723 156.457 73.1519 150.915 54.2754 157.337Z" fill="#E6E6E6"/>
<path d="M112.086 124.497C112.086 124.497 116.359 137.919 108.028 141.885C99.6969 145.85 94.6719 139.675 85.9826 145.116C77.2933 150.556 81.8707 131.654 68.616 132.512C55.3612 133.371 60.3325 143.248 60.3325 143.248C60.3325 143.248 48.9099 132.765 42.9897 141.885C37.0695 151.005 39.9282 159.576 66.6167 156.996C93.3053 154.415 112.886 157.927 136.006 157.461C159.125 156.996 201.653 161.292 203.921 149.266C206.188 137.241 194.324 131.907 181.977 138.649C169.629 145.391 171.7 129.854 157.413 136.966C143.125 144.078 126.224 152.267 121.904 120.812L112.086 124.497Z" fill="#DFDADA"/>
<path d="M121.496 121.499C122.593 129.068 124.441 134.349 126.852 137.888C129.342 141.542 132.427 143.326 135.846 143.846C139.238 144.362 142.916 143.625 146.609 142.338C150.305 141.049 154.068 139.189 157.635 137.413C161.149 135.665 163.587 135.342 165.456 135.669C167.332 135.997 168.712 136.989 170.118 138.065C170.2 138.128 170.283 138.192 170.365 138.255C171.672 139.259 173.048 140.317 174.829 140.718C176.752 141.15 179.064 140.809 182.216 139.087C188.294 135.769 194.174 135.465 198.216 137.372C200.232 138.323 201.8 139.826 202.733 141.8C203.667 143.774 203.98 146.253 203.429 149.174C203.175 150.52 202.357 151.667 201.006 152.647C199.648 153.633 197.774 154.433 195.47 155.073C190.862 156.352 184.659 156.956 177.765 157.199C170.878 157.442 163.337 157.325 156.062 157.175C155.176 157.157 154.294 157.139 153.417 157.12C147.104 156.986 141.082 156.859 135.996 156.961C126.956 157.143 118.463 156.716 109.853 156.283C107.473 156.164 105.084 156.044 102.672 155.936C91.5415 155.438 79.9472 155.204 66.5686 156.498C59.9197 157.141 54.7809 157.086 50.9067 156.511C47.0257 155.935 44.4609 154.843 42.9082 153.455C41.3775 152.087 40.7922 150.396 40.9295 148.492C41.0686 146.563 41.9531 144.4 43.4091 142.157C44.817 139.988 46.5206 139.02 48.2749 138.744C50.0525 138.464 51.9374 138.887 53.6908 139.609C55.4396 140.329 57.0173 141.331 58.1624 142.158C58.7337 142.57 59.1941 142.937 59.5108 143.2C59.6691 143.331 59.7913 143.437 59.8733 143.509C59.9143 143.544 59.9452 143.572 59.9656 143.59L59.9881 143.611L59.9933 143.615L59.9944 143.616L59.9944 143.616L59.9945 143.616C59.9945 143.616 59.9945 143.616 59.995 143.616L60.7777 143.024C60.7793 143.023 60.7793 143.023 60.7793 143.023L60.7792 143.023L60.7791 143.023L60.7775 143.02L60.7692 143.003C60.7616 142.987 60.7498 142.962 60.7346 142.929C60.7042 142.862 60.6603 142.763 60.6082 142.634C60.504 142.377 60.3683 142.006 60.2449 141.558C59.9964 140.657 59.8059 139.473 59.9974 138.281C60.1865 137.104 60.7483 135.911 62.0295 134.952C63.3233 133.983 65.392 133.222 68.6483 133.011C71.8255 132.806 73.8822 133.778 75.3463 135.239C76.8372 136.726 77.7478 138.749 78.5481 140.721C78.6353 140.935 78.7215 141.15 78.8071 141.364C79.1084 142.115 79.4027 142.849 79.7117 143.505C80.1079 144.347 80.5518 145.116 81.1148 145.676C81.6929 146.25 82.4018 146.608 83.289 146.601C84.1519 146.595 85.1233 146.244 86.248 145.539C90.4505 142.908 93.742 143.08 97.0856 143.444C97.3154 143.469 97.5457 143.495 97.7768 143.521C100.929 143.877 104.225 144.249 108.243 142.336C112.682 140.223 113.709 135.606 113.681 131.7C113.668 129.732 113.388 127.897 113.114 126.556C112.976 125.885 112.839 125.335 112.737 124.952C112.722 124.899 112.709 124.849 112.696 124.802L121.496 121.499Z" stroke="black" stroke-opacity="0.19"/>
<path d="M83.0044 17.7077C52.4128 24.0458 32.0324 51.7934 37.678 80.7469C40.3696 94.5675 49.0171 108.281 70.7463 114.681C122.894 130.05 181.672 122.382 192.038 92.1332C202.405 61.884 195.691 42.4096 170.399 27.2317C154.058 17.4272 114.963 11.0891 83.0044 17.7077Z" fill="#24285B"/>
<path d="M103.254 75.4521L78.7852 101.113H105.438L103.254 75.4521Z" fill="#68E1FD"/>
<path d="M133.135 75.4521L157.604 101.113H130.951L133.135 75.4521Z" fill="#68E1FD"/>
<path d="M117.666 34.3887V34.2373L117.583 34.3158L117.499 34.2373V34.3944C115.375 36.4024 94.0454 58.4008 106.333 120.812H129.954C142.248 58.311 119.851 36.3575 117.666 34.3887Z" fill="#68E1FD"/>
<path opacity="0.11" d="M131.959 66.0796L132.64 70.4995C126.257 72.9884 119.341 74.0317 112.45 73.5451C110.612 73.389 108.762 73.6723 107.072 74.3685C105.381 75.0648 103.906 76.1515 102.782 77.5275C102.782 77.5275 103.457 68.4073 103.94 66.3376L131.959 66.0796Z" fill="#3B1E59"/>
<path opacity="0.7" d="M117.666 34.3887V34.2373L117.583 34.3158L117.499 34.2373V34.3944C115.375 36.4024 94.0454 58.4008 106.333 120.812H129.954C142.248 58.311 119.851 36.3575 117.666 34.3887Z" fill="white"/>
<path opacity="0.08" d="M109.371 86.5635L102.807 93.513C102.964 99.703 103.628 105.872 104.794 111.967L121.391 100.378L109.371 86.5635Z" fill="black"/>
<path d="M105.438 116.005L106.334 120.812H130.17L131.106 116.005H105.438Z" fill="#FFD200"/>
<path d="M105.104 60.6274L105.056 60.7621C104.387 62.4126 104.033 64.1615 104.012 65.9279L103.94 66.3374C103.94 66.3374 117.195 73.4159 131.96 66.0794C132.033 65.8349 132.067 65.5816 132.061 65.3278C132.007 63.7096 131.63 62.1153 130.951 60.6274H105.104Z" fill="#FFD200"/>
<path d="M105.438 116.005L106.334 120.812H130.17L131.106 116.005H105.438Z" fill="#68E1FD"/>
<path d="M105.104 60.6274L105.056 60.7621C104.387 62.4126 104.033 64.1615 104.012 65.9279L103.94 66.3374C103.94 66.3374 117.195 73.4159 131.96 66.0794C132.033 65.8349 132.067 65.5816 132.061 65.3278C132.007 63.7096 131.63 62.1153 130.951 60.6274H105.104Z" fill="#68E1FD"/>
<path opacity="0.08" d="M105.438 116.005L106.334 120.812H130.17L131.106 116.005H105.438Z" fill="black"/>
<path opacity="0.08" d="M105.104 60.6274L105.056 60.7621C104.387 62.4126 104.033 64.1615 104.012 65.9279L103.94 66.3374C103.94 66.3374 117.195 73.4159 131.96 66.0794C132.033 65.8349 132.067 65.5816 132.061 65.3278C132.007 63.7096 131.63 62.1153 130.951 60.6274H105.104Z" fill="black"/>
<path d="M105.104 60.6274C105.104 60.6274 117.637 66.1074 130.952 60.6274C130.952 60.6274 129.084 43.4527 120.209 33.5753C119.941 33.2783 119.607 33.0408 119.229 32.8798C118.852 32.7189 118.442 32.6384 118.027 32.6443C117.613 32.6502 117.205 32.7423 116.834 32.914C116.462 33.0856 116.135 33.3325 115.877 33.637C112.94 37.0978 107.796 45.0906 105.104 60.6274Z" fill="#68E1FD"/>
<path d="M118.323 101.113C124.009 101.113 128.618 96.7813 128.618 91.4377C128.618 86.0941 124.009 81.7622 118.323 81.7622C112.637 81.7622 108.028 86.0941 108.028 91.4377C108.028 96.7813 112.637 101.113 118.323 101.113Z" fill="#68E1FD"/>
<path d="M118.323 97.3437C121.794 97.3437 124.607 94.6994 124.607 91.4375C124.607 88.1756 121.794 85.5312 118.323 85.5312C114.853 85.5312 112.039 88.1756 112.039 91.4375C112.039 94.6994 114.853 97.3437 118.323 97.3437Z" fill="#24285B"/>
<path opacity="0.16" d="M119.797 91.4377C121.02 91.4377 122.011 90.5061 122.011 89.3568C122.011 88.2075 121.02 87.2759 119.797 87.2759C118.574 87.2759 117.583 88.2075 117.583 89.3568C117.583 90.5061 118.574 91.4377 119.797 91.4377Z" fill="white"/>
<path d="M106.334 120.812L92.1123 136.966L121.904 127.341V120.812H106.334Z" fill="#68E1FD"/>
<path d="M130.056 120.812L144.277 136.966L114.491 127.341V120.812H130.056Z" fill="#68E1FD"/>
<path d="M56.9188 81.4535C57.9835 81.4535 58.8465 80.6423 58.8465 79.6418C58.8465 78.6412 57.9835 77.8301 56.9188 77.8301C55.8542 77.8301 54.9912 78.6412 54.9912 79.6418C54.9912 80.6423 55.8542 81.4535 56.9188 81.4535Z" fill="white"/>
<path d="M100.61 27.6131C101.675 27.6131 102.538 26.802 102.538 25.8014C102.538 24.8009 101.675 23.9897 100.61 23.9897C99.5456 23.9897 98.6826 24.8009 98.6826 25.8014C98.6826 26.802 99.5456 27.6131 100.61 27.6131Z" fill="white"/>
<path d="M150.682 65.0585C151.746 65.0585 152.609 64.2473 152.609 63.2468C152.609 62.2462 151.746 61.4351 150.682 61.4351C149.617 61.4351 148.754 62.2462 148.754 63.2468C148.754 64.2473 149.617 65.0585 150.682 65.0585Z" fill="white"/>
<path d="M144.188 29.9238C144.699 29.9238 145.113 29.5346 145.113 29.0544C145.113 28.5743 144.699 28.1851 144.188 28.1851C143.677 28.1851 143.263 28.5743 143.263 29.0544C143.263 29.5346 143.677 29.9238 144.188 29.9238Z" fill="white"/>
<path d="M185.439 73.5396C185.95 73.5396 186.364 73.1503 186.364 72.6702C186.364 72.19 185.95 71.8008 185.439 71.8008C184.928 71.8008 184.514 72.19 184.514 72.6702C184.514 73.1503 184.928 73.5396 185.439 73.5396Z" fill="white"/>
<path d="M164.813 108.876C165.324 108.876 165.738 108.487 165.738 108.007C165.738 107.526 165.324 107.137 164.813 107.137C164.302 107.137 163.888 107.526 163.888 108.007C163.888 108.487 164.302 108.876 164.813 108.876Z" fill="white"/>
<path d="M90.4114 111.237C90.9222 111.237 91.3364 110.848 91.3364 110.368C91.3364 109.888 90.9222 109.499 90.4114 109.499C89.9005 109.499 89.4863 109.888 89.4863 110.368C89.4863 110.848 89.9005 111.237 90.4114 111.237Z" fill="white"/>
<path opacity="0.08" d="M77.9322 68.2163C88.4761 68.2163 97.0236 60.1829 97.0236 50.2732C97.0236 40.3635 88.4761 32.3301 77.9322 32.3301C67.3883 32.3301 58.8408 40.3635 58.8408 50.2732C58.8408 60.1829 67.3883 68.2163 77.9322 68.2163Z" fill="white"/>
<path d="M77.9325 64.4975C86.2911 64.4975 93.0671 58.1291 93.0671 50.2732C93.0671 42.4173 86.2911 36.0488 77.9325 36.0488C69.5739 36.0488 62.7979 42.4173 62.7979 50.2732C62.7979 58.1291 69.5739 64.4975 77.9325 64.4975Z" fill="#FFD200"/>
<path opacity="0.08" d="M72.6808 47.009C74.4343 47.009 75.8557 45.673 75.8557 44.025C75.8557 42.377 74.4343 41.041 72.6808 41.041C70.9273 41.041 69.5059 42.377 69.5059 44.025C69.5059 45.673 70.9273 47.009 72.6808 47.009Z" fill="black"/>
<path opacity="0.08" d="M82.2172 45.8198C83.3873 45.8198 84.3359 44.9283 84.3359 43.8286C84.3359 42.7289 83.3873 41.8374 82.2172 41.8374C81.0472 41.8374 80.0986 42.7289 80.0986 43.8286C80.0986 44.9283 81.0472 45.8198 82.2172 45.8198Z" fill="black"/>
</svg>
