<svg width="176" height="176" viewBox="0 0 176 176" fill="none" xmlns="http://www.w3.org/2000/svg">
<g filter="url(#filter0_f_16_570)">
<path d="M54.5317 138.45L56.7667 139.774C66.1537 145.345 76.9167 148.292 87.8927 148.297H87.9157C121.623 148.297 149.055 120.871 149.069 87.1621C149.075 70.8271 142.72 55.4661 131.174 43.9111C125.511 38.2125 118.774 33.6937 111.353 30.6164C103.931 27.539 95.9736 25.9642 87.9397 25.9831C54.2067 25.9831 26.7737 53.4061 26.7617 87.1131C26.7451 98.6231 29.9863 109.903 36.1107 119.648L37.5657 121.96L31.3867 144.518L54.5317 138.45ZM13.7207 161.994L24.1597 123.88C17.7217 112.726 14.3347 100.072 14.3387 87.1081C14.3557 46.5521 47.3597 13.5581 87.9167 13.5581C107.598 13.5681 126.071 21.2271 139.964 35.1301C153.857 49.0331 161.501 67.5131 161.494 87.1671C161.476 127.72 128.467 160.72 87.9157 160.72H87.8837C75.5707 160.715 63.4717 157.626 52.7247 151.766L13.7207 161.994Z" fill="#B3B3B3"/>
</g>
<path d="M12.9658 161.238L23.4048 123.124C16.9557 111.943 13.5682 99.2593 13.5838 86.3518C13.6008 45.7958 46.6048 12.8018 87.1618 12.8018C106.843 12.8118 125.316 20.4708 139.209 34.3738C153.102 48.2768 160.746 66.7568 160.739 86.4108C160.721 126.964 127.712 159.964 87.1608 159.964H87.1288C74.8158 159.959 62.7168 156.87 51.9698 151.01L12.9658 161.238Z" fill="white"/>
<path d="M87.1839 25.2272C53.4509 25.2272 26.0179 52.6502 26.0059 86.3572C25.9893 97.8672 29.2305 109.147 35.3549 118.892L36.8099 121.205L30.6309 143.763L53.7769 137.694L56.0119 139.018C65.3989 144.589 76.1619 147.535 87.1379 147.541H87.1609C120.868 147.541 148.301 120.115 148.314 86.4062C148.339 78.3718 146.771 70.4122 143.699 62.9881C140.627 55.564 136.114 48.8229 130.419 43.1552C124.756 37.4565 118.019 32.9377 110.597 29.8603C103.176 26.783 95.218 25.2082 87.1839 25.2272Z" fill="url(#paint0_linear_16_570)"/>
<path fill-rule="evenodd" clip-rule="evenodd" d="M68.7724 55.6028C67.3944 52.5418 65.9444 52.4798 64.6354 52.4268L61.1114 52.3838C59.8854 52.3838 57.8934 52.8438 56.2094 54.6838C54.5254 56.5238 49.7744 60.9708 49.7744 70.0158C49.7744 79.0608 56.3624 87.8008 57.2804 89.0288C58.1984 90.2568 69.9984 109.41 88.6854 116.779C104.214 122.903 107.374 121.685 110.746 121.379C114.118 121.073 121.623 116.932 123.154 112.639C124.685 108.346 124.686 104.668 124.227 103.899C123.768 103.13 122.542 102.673 120.702 101.753C118.862 100.833 109.825 96.3858 108.14 95.7718C106.455 95.1578 105.23 94.8528 104.003 96.6928C102.776 98.5328 99.2574 102.672 98.1844 103.899C97.1114 105.126 96.0404 105.28 94.2004 104.361C92.3604 103.442 86.4404 101.5 79.4164 95.2368C73.9514 90.3638 70.2624 84.3458 69.1884 82.5068C68.1144 80.6678 69.0744 79.6718 69.9964 78.7558C70.8214 77.9318 71.8344 76.6088 72.7554 75.5358C73.6764 74.4628 73.9794 73.6958 74.5914 72.4708C75.2034 71.2458 74.8984 70.1698 74.4384 69.2508C73.9784 68.3318 70.4064 59.2388 68.7724 55.6028Z" fill="white"/>
<defs>
<filter id="filter0_f_16_570" x="6.6587" y="6.49611" width="161.897" height="162.56" filterUnits="userSpaceOnUse" color-interpolation-filters="sRGB">
<feFlood flood-opacity="0" result="BackgroundImageFix"/>
<feBlend mode="normal" in="SourceGraphic" in2="BackgroundImageFix" result="shape"/>
<feGaussianBlur stdDeviation="3.531" result="effect1_foregroundBlur_16_570"/>
</filter>
<linearGradient id="paint0_linear_16_570" x1="85.9149" y1="32.5672" x2="86.5349" y2="137.092" gradientUnits="userSpaceOnUse">
<stop stop-color="#57D163"/>
<stop offset="1" stop-color="#23B33A"/>
</linearGradient>
</defs>
</svg>
