<svg width="144" height="130" viewBox="0 0 144 130" fill="none" xmlns="http://www.w3.org/2000/svg">
<path d="M71.4373 118.711C103.71 118.711 129.873 95.0925 129.873 65.9572C129.873 36.8219 103.71 13.2031 71.4373 13.2031C39.1643 13.2031 13.002 36.8219 13.002 65.9572C13.002 95.0925 39.1643 118.711 71.4373 118.711Z" fill="#CDCCD2"/>
<path d="M71.4376 115.319C101.635 115.319 126.115 93.2189 126.115 65.9571C126.115 38.6953 101.635 16.5952 71.4376 16.5952C41.2399 16.5952 16.7598 38.6953 16.7598 65.9571C16.7598 93.2189 41.2399 115.319 71.4376 115.319Z" fill="white"/>
<path d="M97.2144 46.6782H44.3535C43.4584 46.6782 42.6 46.9992 41.967 47.5706C41.3341 48.142 40.9785 48.917 40.9785 49.7251V80.3233C40.9785 81.1186 41.3285 81.8813 41.9514 82.4437C42.5743 83.006 43.4191 83.322 44.3001 83.322H97.2032C98.5644 83.322 99.7738 82.3774 99.7738 81.1511V48.8771C99.7851 47.6507 98.5729 46.6782 97.2144 46.6782ZM61.6532 74.1179V56.3673L78.9838 64.5812L61.6532 74.1179Z" fill="#FF2730"/>
</svg>
